<?xml version="1.0" standalone="no"?>
<!DOCTYPE svg PUBLIC "-//W3C//DTD SVG 20010904//EN"
 "http://www.w3.org/TR/2001/REC-SVG-20010904/DTD/svg10.dtd">
<svg version="1.0" xmlns="http://www.w3.org/2000/svg"
 width="700.000000pt" height="700.000000pt" viewBox="0 0 700.000000 700.000000"
 preserveAspectRatio="xMidYMid meet">
<metadata>
Created by potrace 1.14, written by Peter Selinger 2001-2017
</metadata>
<g transform="translate(0.000000,700.000000) scale(0.100000,-0.100000)"
fill="#000000" stroke="none">
<path d="M788 4534 c-2 -1 -34 -4 -72 -7 -38 -3 -72 -9 -76 -14 -9 -9 -23
-155 -22 -227 2 -175 35 -326 95 -441 46 -89 173 -210 267 -257 162 -80 357
-108 583 -84 l65 7 8 72 c64 595 -210 936 -763 951 -46 2 -84 2 -85 0z"/>
<path d="M2549 4144 c-226 -42 -425 -195 -532 -409 -26 -53 -71 -180 -81 -230
-4 -16 -9 -41 -12 -55 -14 -58 -12 -267 2 -349 77 -431 384 -694 822 -705 92
-3 120 1 255 36 84 21 161 40 172 43 11 2 92 22 180 45 88 23 168 43 178 45
10 2 27 7 37 10 10 3 27 7 37 9 10 2 119 30 242 61 123 31 231 58 240 60 9 2
167 42 351 89 437 111 1291 327 1310 331 8 2 62 15 120 30 58 15 112 28 120
30 54 11 349 89 346 92 -3 3 -268 72 -305 79 -13 3 -95 23 -183 45 -88 22
-170 42 -181 45 -11 2 -34 8 -51 13 -17 6 -42 12 -56 15 -14 2 -108 25 -210
51 -102 26 -193 49 -202 51 -10 2 -26 6 -35 8 -54 13 -2117 528 -2163 540
-124 33 -291 41 -401 20z"/>
</g>
</svg>
