<?xml version="1.0" encoding="utf-8"?>
<svg version="1.1" viewBox="0 0 600 419" width="600px" height="419px" xmlns="http://www.w3.org/2000/svg">
  <g transform="matrix(0.794713, 0, 0, 0.787405, -53.5341, -11.228266)" style="">
    <title>Browser</title>
    <path d="M 124.908 62.334 C 120.773 63.816 113.597 64.315 111.74 67.642 C 104.245 81.072 103.839 99.08 103.839 116.601 C 103.839 161.224 109.764 201.288 109.764 242.83 C 109.764 254.201 105.586 275.453 111.081 285.3 C 113.913 290.375 108.076 298.199 111.081 303.586 C 114.281 309.318 109.764 319.942 109.764 324.821 C 109.764 325.328 106.781 329.226 108.448 330.72 C 114.356 336.011 108.826 344.711 111.74 352.544 C 114.686 360.463 113.057 371.211 113.057 379.677 C 113.057 388.817 115.032 399.124 115.032 409.171 C 115.032 415.142 113.477 426.063 117.008 429.226 C 118.873 430.897 115.8 436.992 117.666 438.664 C 119.861 440.63 116.129 447.905 118.324 449.871 C 120.351 451.687 117.945 463.528 117.008 465.207 C 112.857 472.644 117.458 479.768 120.958 482.903 C 122.686 484.451 119.76 487.622 123.591 487.622 C 129.279 488.801 142.185 494.181 148.612 497.06 C 152.898 498.98 159.572 498.135 163.755 500.009 C 167.307 501.599 175.987 500.009 180.216 500.009 C 184.642 500.009 202.538 504.785 205.894 501.778 C 207.315 500.506 211.953 499.419 215.112 499.419 C 232.013 499.419 247.362 501.188 264.494 501.188 C 271.853 501.188 283.254 499.122 290.172 501.188 C 302.625 504.908 331.25 506.587 344.821 503.548 C 374.51 496.899 408.783 502.823 440.95 497.06 C 464.75 492.795 488.904 493.412 514.035 491.161 C 526.437 490.05 543.081 494.678 554.857 491.161 C 571.095 486.312 590.474 487.622 608.189 487.622 C 642.786 487.622 680.449 488.528 714.853 492.931 C 722.921 493.963 747.036 495.361 753.042 489.982 C 757.057 486.385 761.755 475.722 766.869 472.285 C 769.648 470.419 776.374 468.488 778.062 466.977 C 779.391 465.785 776.744 458.658 776.744 457.539 C 776.744 453.245 770.103 445.537 768.844 441.023 C 766.613 433.03 774.769 428.084 774.769 420.378 C 775.428 410.646 770.588 397.198 774.111 390.885 C 776.283 386.993 779.112 374.241 777.404 369.65 C 775.131 363.545 776.086 354.845 776.086 350.185 C 776.086 348.393 776.646 340.069 775.428 338.977 C 771.95 335.862 775.982 326.993 773.452 322.461 C 770.867 317.828 772.136 310.202 772.136 304.766 C 772.136 290.215 772.136 275.666 772.136 261.116 C 772.136 243.883 770.535 225.823 772.136 208.619 C 773.132 197.903 775.788 182.774 772.794 172.047 C 771.028 165.718 768.844 155.232 768.844 149.633 C 768.844 134.452 768.185 119.272 768.185 104.214 C 768.185 96.514 770.096 88.116 767.527 81.209 C 766.314 77.949 768.115 67.58 765.552 65.283 C 756.801 57.444 743.743 46.998 726.705 46.998 C 724.298 46.998 719.879 49.17 716.829 50.537 C 708.504 54.266 693.388 51.197 683.907 52.896 C 656.513 57.805 625.071 51.126 597.655 51.126 C 586.023 51.126 574.39 51.126 562.758 51.126 C 559.508 51.126 551.216 52.445 548.272 51.126 C 540.387 47.594 526.723 52.386 518.644 48.767 C 497.579 39.331 470.972 47.517 450.827 51.126 C 440.162 53.037 428.133 52.201 417.906 55.255 C 409.186 57.859 394.372 55.255 384.985 55.255 C 359.856 55.255 334.769 54.852 311.9 59.974 C 304.401 61.653 294.44 58.062 287.538 61.154 C 283.786 62.835 277.519 60.038 273.711 61.744 C 256.672 69.376 232.415 66.463 212.478 66.463 C 201.91 66.463 190.066 67.489 180.216 65.283 C 172.008 63.445 165.433 62.387 157.171 61.154 C 153.992 60.679 147.295 58.739 147.295 58.205" style="stroke: rgb(0, 0, 0); stroke-width: 0px; fill: rgb(255, 255, 255);"/>
    <g transform="matrix(0.850192, 0, 0, 0.760168, 116.974823, 476.947968)" stroke="none" fill="#000000" style="">
      <path d="M -1.61,0 Q -1.61,0 -1.67,-1.62 -1.73,-3.24 -1.37,-5.36 -1.00,-7.47 -0.83,-9.53 -0.65,-11.58 -0.55,-14.08 -0.46,-16.57 -0.41,-19.58 -0.36,-22.59 -0.65,-25.74 -0.94,-28.89 -1.06,-32.57 -1.18,-36.26 -1.23,-40.08 -1.28,-43.91 -1.62,-47.75 -1.95,-51.59 -2.10,-55.55 -2.24,-59.50 -2.62,-63.40 -3.00,-67.29 -3.17,-71.92 -3.33,-76.55 -3.72,-81.38 -4.11,-86.22 -4.28,-90.91 -4.45,-95.60 -4.84,-100.79 -5.23,-105.98 -5.72,-111.10 -6.21,-116.22 -6.74,-121.32 -7.28,-126.41 -7.83,-131.49 -8.38,-136.57 -8.61,-141.36 -8.85,-146.15 -9.27,-151.06 -9.69,-155.97 -9.87,-161.01 -10.06,-166.06 -10.13,-171.12 -10.21,-176.18 -10.24,-181.89 -10.27,-187.61 -10.29,-193.60 -10.30,-199.59 -10.31,-205.70 -10.31,-211.81 -10.32,-217.64 -10.32,-223.48 -10.00,-229.56 -9.67,-235.64 -9.53,-241.10 -9.40,-246.57 -9.34,-252.13 -9.28,-257.69 -9.26,-262.97 -9.23,-268.25 -9.54,-273.69 -9.86,-279.14 -9.99,-284.73 -10.13,-290.32 -10.18,-295.94 -10.24,-301.55 -10.59,-307.14 -10.93,-312.73 -11.08,-318.38 -11.23,-324.03 -11.62,-329.64 -12.00,-335.24 -12.49,-340.54 -12.98,-345.83 -13.19,-351.04 -13.39,-356.24 -13.81,-361.33 -14.22,-366.41 -14.39,-371.21 -14.57,-376.00 -14.97,-380.26 -15.36,-384.51 -15.53,-388.64 -15.70,-392.76 -15.78,-396.79 -15.85,-400.81 -15.88,-404.79 -15.91,-408.76 -16.25,-412.34 -16.58,-415.91 -16.73,-421.71 -16.87,-427.51 -16.61,-431.96 -16.34,-436.40 -16.23,-439.87 -16.12,-443.34 -16.07,-446.43 -16.03,-449.52 -16.01,-453.09 -15.99,-456.67 -15.98,-459.17 -15.97,-461.66 -15.99,-463.69 -16.01,-465.73 -16.06,-467.56 -16.11,-469.40 -16.21,-470.82 -16.31,-472.25 -16.37,-473.83 -16.43,-475.41 -16.47,-477.06 -16.51,-478.71 -16.22,-480.28 -15.93,-481.85 -15.79,-483.55 -15.65,-485.25 -15.95,-486.44 -16.25,-487.64 -16.43,-488.99 -16.62,-490.33 -16.82,-492.28 -17.01,-494.22 -17.12,-495.97 -17.23,-497.71 -17.31,-499.41 -17.38,-501.11 -17.43,-502.94 -17.49,-504.77 -17.51,-506.82 -17.53,-508.88 -17.15,-510.37 -16.77,-511.86 -16.64,-513.52 -16.52,-515.18 -16.05,-516.35 -15.58,-517.52 -15.51,-519.12 -15.44,-520.73 -14.96,-521.94 -14.49,-523.15 -13.92,-525.05 -13.35,-526.95 -12.83,-528.68 -12.30,-530.41 -11.73,-531.63 -11.16,-532.85 -10.67,-534.00 -10.18,-535.14 -9.58,-536.18 -8.98,-537.23 -7.75,-539.09 -6.53,-540.96 -5.49,-541.66 -4.46,-542.36 -3.32,-543.51 -2.18,-544.67 -0.89,-545.37 0.39,-546.08 2.09,-546.67 3.80,-547.26 5.12,-547.61 6.45,-547.96 8.56,-548.27 10.67,-548.57 12.26,-549.05 13.84,-549.53 15.06,-549.59 16.27,-549.65 17.76,-549.62 19.24,-549.58 20.51,-549.56 21.78,-549.54 22.97,-549.53 24.15,-549.52 25.98,-549.54 27.81,-549.55 29.22,-549.51 30.63,-549.46 32.23,-549.06 33.83,-548.67 35.86,-548.51 37.89,-548.35 40.12,-547.79 42.36,-547.23 44.42,-546.94 46.48,-546.65 48.35,-546.52 50.22,-546.40 51.89,-546.05 53.55,-545.70 54.70,-545.62 55.85,-545.54 56.97,-545.53 58.08,-545.52 59.52,-545.50 60.95,-545.48 62.54,-545.46 64.13,-545.43 65.77,-545.41 67.42,-545.38 69.09,-545.36 70.76,-545.34 72.45,-545.32 74.13,-545.30 75.81,-545.28 77.50,-545.27 79.51,-545.19 81.53,-545.10 83.35,-545.08 85.18,-545.06 86.93,-545.06 88.68,-545.06 90.72,-545.00 92.76,-544.93 94.92,-544.86 97.08,-544.79 98.97,-544.79 100.86,-544.80 104.26,-544.74 107.65,-544.69 110.07,-544.65 112.48,-544.61 115.13,-544.59 117.77,-544.56 120.19,-544.54 122.61,-544.52 124.94,-544.50 127.26,-544.49 130.84,-544.48 134.42,-544.46 137.24,-544.46 140.06,-544.45 142.55,-544.44 145.04,-544.44 147.40,-544.43 149.75,-544.43 152.37,-544.43 154.99,-544.42 157.40,-544.42 159.81,-544.42 162.13,-544.42 164.45,-544.42 167.06,-544.41 169.66,-544.41 172.31,-544.73 174.96,-545.05 181.69,-545.19 188.42,-545.33 193.16,-545.71 197.90,-546.09 202.22,-546.26 206.55,-546.42 210.61,-546.81 214.66,-547.20 218.65,-547.69 222.64,-548.18 226.61,-548.71 230.57,-549.24 234.52,-549.79 238.47,-550.34 242.42,-550.90 246.37,-551.46 250.31,-552.02 254.26,-552.58 257.93,-552.82 261.60,-553.07 265.38,-553.49 269.15,-553.91 274.67,-554.42 280.19,-554.92 284.78,-555.46 289.37,-556.00 293.31,-556.23 297.25,-556.46 301.14,-556.88 305.04,-557.30 308.96,-557.80 312.88,-558.30 319.44,-558.84 326.01,-559.38 331.36,-559.93 336.71,-560.48 341.30,-560.72 345.88,-560.96 354.27,-561.71 362.65,-562.45 368.52,-562.77 374.39,-563.09 378.83,-563.23 383.27,-563.36 386.72,-563.74 390.17,-564.12 393.64,-564.28 397.11,-564.45 400.53,-564.52 403.95,-564.59 407.03,-564.62 410.10,-564.65 412.95,-564.98 415.81,-565.31 420.67,-565.46 425.53,-565.60 429.20,-565.66 432.87,-565.73 436.38,-565.75 439.88,-565.78 442.99,-565.79 446.10,-565.80 449.37,-565.80 452.63,-565.81 455.96,-565.81 459.30,-565.81 462.66,-565.81 466.01,-565.81 471.01,-565.81 476.00,-565.81 483.63,-565.82 491.25,-565.82 497.77,-565.49 504.28,-565.17 508.97,-565.03 513.65,-564.89 517.32,-564.51 520.98,-564.12 524.43,-563.96 527.87,-563.80 531.27,-563.73 534.68,-563.66 538.13,-563.31 541.59,-562.95 544.94,-562.80 548.28,-562.66 551.65,-562.59 555.02,-562.53 558.39,-562.50 561.77,-562.48 566.76,-562.46 571.76,-562.45 575.51,-562.45 579.25,-562.44 582.46,-562.44 585.67,-562.44 588.73,-562.11 591.78,-561.78 594.31,-561.65 596.84,-561.51 603.08,-561.45 609.33,-561.39 613.93,-561.37 618.54,-561.35 622.44,-561.33 626.34,-561.32 629.94,-561.32 633.54,-561.31 637.02,-561.31 640.49,-561.31 643.91,-561.31 647.33,-561.31 650.73,-561.31 654.13,-561.31 659.75,-561.63 665.36,-561.95 669.40,-562.09 673.44,-562.23 677.05,-562.61 680.65,-562.99 683.86,-563.15 687.07,-563.32 689.73,-563.39 692.39,-563.46 695.07,-563.81 697.74,-564.16 701.89,-564.31 706.03,-564.47 710.37,-564.53 714.71,-564.59 717.52,-564.62 720.33,-564.65 722.50,-564.66 724.67,-564.67 726.57,-564.73 728.46,-564.78 729.91,-564.89 731.37,-564.99 734.34,-564.62 737.31,-564.25 739.16,-564.14 741.00,-564.03 742.11,-564.08 743.22,-564.13 744.32,-564.20 745.42,-564.26 746.56,-564.32 747.70,-564.38 748.89,-564.04 750.08,-563.71 751.64,-563.68 753.19,-563.66 755.19,-563.07 757.19,-562.49 758.34,-562.16 759.48,-561.82 760.43,-561.28 761.37,-560.73 762.64,-559.75 763.92,-558.77 764.68,-558.02 765.44,-557.28 766.55,-556.18 767.66,-555.08 768.22,-554.07 768.77,-553.06 769.45,-551.81 770.14,-550.55 770.74,-548.85 771.35,-547.15 771.49,-545.72 771.64,-544.30 772.13,-542.94 772.61,-541.57 773.13,-539.85 773.65,-538.14 773.80,-536.63 773.96,-535.13 774.20,-533.60 774.44,-532.08 774.62,-530.71 774.81,-529.34 774.89,-527.45 774.98,-525.57 775.57,-523.14 776.16,-520.70 776.35,-519.09 776.53,-517.47 776.62,-516.10 776.71,-514.73 776.75,-513.50 776.80,-512.26 776.82,-511.09 776.84,-509.92 777.10,-508.73 777.36,-507.54 777.36,-504.74 777.35,-501.94 777.37,-500.18 777.39,-498.42 777.29,-494.41 777.19,-490.40 777.11,-488.05 777.02,-485.71 777.00,-483.75 776.97,-481.78 776.91,-478.03 776.85,-474.27 776.81,-471.71 776.76,-469.14 776.73,-466.75 776.70,-464.37 776.67,-460.76 776.65,-457.16 776.63,-454.33 776.61,-451.50 776.27,-447.97 775.93,-444.43 775.79,-440.09 775.64,-435.74 775.58,-432.26 775.51,-428.79 775.81,-426.09 776.10,-423.40 776.22,-416.98 776.35,-410.56 776.72,-406.28 777.10,-402.00 777.58,-395.62 778.06,-389.23 778.27,-383.26 778.48,-377.28 778.88,-373.18 779.29,-369.07 779.47,-362.73 779.64,-356.38 779.72,-351.76 779.79,-347.13 780.14,-343.60 780.50,-340.07 780.65,-336.57 780.80,-333.06 780.54,-327.32 780.28,-321.58 780.17,-315.29 780.06,-309.01 780.02,-304.07 779.97,-299.13 779.95,-295.08 779.93,-291.04 779.60,-285.40 779.26,-279.75 779.12,-272.22 778.98,-264.68 778.92,-259.52 778.86,-254.37 778.84,-250.56 778.81,-246.75 779.12,-243.58 779.43,-240.40 779.57,-237.37 779.70,-234.34 780.08,-229.20 780.46,-224.06 780.62,-220.23 780.79,-216.39 781.18,-211.56 781.57,-206.72 781.74,-203.01 781.91,-199.30 781.98,-196.10 782.05,-192.90 782.08,-188.62 782.11,-184.34 782.44,-179.98 782.78,-175.62 782.92,-172.11 783.07,-168.59 783.13,-165.80 783.19,-163.01 783.22,-160.52 783.24,-158.04 783.57,-155.44 783.90,-152.84 784.05,-149.38 784.20,-145.93 784.26,-142.52 784.32,-139.12 784.66,-136.45 785.01,-133.78 785.16,-131.61 785.31,-129.44 785.38,-127.21 785.44,-124.98 785.47,-122.74 785.49,-120.49 785.83,-117.01 786.16,-113.52 786.30,-111.02 786.45,-108.52 786.51,-105.17 786.57,-101.83 786.92,-98.20 787.26,-94.57 787.42,-91.03 787.57,-87.49 787.63,-83.71 787.69,-79.94 787.72,-77.69 787.75,-75.44 787.86,-73.84 787.96,-72.23 788.04,-70.58 788.11,-68.92 788.16,-67.25 788.21,-65.57 788.16,-62.59 788.10,-59.61 788.11,-57.70 788.11,-55.78 788.14,-54.00 788.18,-52.21 788.27,-51.13 788.37,-50.05 788.45,-48.94 788.54,-47.83 788.57,-46.39 788.61,-44.94 788.66,-43.68 788.71,-42.42 788.80,-40.23 788.88,-38.03 788.74,-35.52 788.60,-33.00 788.64,-31.61 788.68,-30.22 788.56,-28.01 788.44,-25.80 788.41,-23.89 788.37,-21.98 788.45,-20.84 788.53,-19.70 788.66,-18.16 788.78,-16.63 788.39,-15.52 788.00,-14.41 787.60,-12.98 787.21,-11.56 786.36,-10.06 785.51,-8.56 784.68,-7.63 783.85,-6.69 782.17,-5.41 780.49,-4.12 778.01,-2.67 775.52,-1.23 774.15,-0.54 772.77,0.14 770.55,1.25 768.32,2.35 765.89,3.17 763.46,3.99 761.90,4.66 760.34,5.34 759.05,5.98 757.76,6.62 756.35,7.01 754.93,7.40 753.94,7.84 752.94,8.27 750.07,9.00 747.20,9.74 745.04,10.32 742.88,10.90 741.39,11.51 739.89,12.13 737.13,12.68 734.37,13.23 731.36,14.05 728.34,14.88 724.76,15.87 721.18,16.86 718.61,17.28 716.04,17.71 714.06,18.19 712.08,18.68 708.49,18.90 704.91,19.11 700.87,19.51 696.84,19.91 693.79,20.08 690.74,20.25 688.14,20.32 685.54,20.39 681.51,20.42 677.49,20.44 671.60,20.78 665.72,21.11 661.95,21.57 658.18,22.03 655.23,22.23 652.28,22.43 649.47,22.83 646.66,23.23 641.53,23.73 636.40,24.23 632.91,24.45 629.42,24.66 625.66,24.75 621.89,24.84 616.44,25.20 610.99,25.56 605.08,25.72 599.16,25.87 595.41,26.26 591.66,26.64 589.05,26.81 586.44,26.98 584.02,27.05 581.60,27.12 579.28,27.15 576.95,27.18 572.08,27.19 567.20,27.21 562.49,26.89 557.78,26.57 554.52,26.43 551.26,26.30 548.59,26.24 545.91,26.18 540.85,25.83 535.79,25.48 532.63,25.00 529.47,24.53 526.90,24.33 524.33,24.14 520.98,24.05 517.63,23.97 512.97,23.93 508.31,23.90 505.02,23.88 501.74,23.87 499.05,23.86 496.36,23.85 493.60,23.85 490.84,23.85 487.07,23.85 483.31,23.85 477.53,24.17 471.76,24.49 467.98,24.63 464.20,24.77 459.99,24.82 455.79,24.88 452.44,25.23 449.10,25.57 446.33,25.73 443.55,25.88 440.75,25.94 437.94,26.00 431.63,26.67 425.32,27.35 419.01,27.64 412.70,27.93 408.41,28.05 404.11,28.17 400.39,28.54 396.68,28.92 391.51,29.40 386.34,29.88 379.28,30.41 372.21,30.94 367.62,31.49 363.03,32.04 359.47,32.59 355.91,33.15 351.08,33.39 346.25,33.63 341.34,34.06 336.42,34.48 331.05,34.66 325.68,34.84 321.78,34.92 317.88,35.00 314.60,35.03 311.32,35.06 308.31,35.08 305.30,35.09 298.86,35.42 292.43,35.75 288.10,36.21 283.77,36.67 278.67,37.19 273.58,37.71 269.76,37.94 265.95,38.16 262.77,38.58 259.58,38.99 253.98,39.49 248.37,40.00 244.68,40.21 240.99,40.43 238.11,40.52 235.24,40.61 231.37,40.32 227.49,40.04 224.28,39.92 221.07,39.80 215.74,39.09 210.42,38.39 205.59,37.77 200.77,37.15 197.39,36.55 194.01,35.96 191.66,35.72 189.31,35.47 184.74,35.04 180.17,34.61 176.88,34.10 173.60,33.59 171.29,33.38 168.98,33.17 166.72,33.08 164.46,32.99 161.24,32.95 158.01,32.91 153.40,32.90 148.79,32.88 144.88,32.87 140.98,32.87 136.73,32.86 132.48,32.86 128.73,32.86 124.98,32.86 119.86,33.18 114.74,33.50 111.89,33.64 109.05,33.78 106.85,33.84 104.66,33.90 103.23,34.32 101.80,34.75 98.74,34.89 95.68,35.03 93.11,35.07 90.55,35.12 89.15,35.25 87.75,35.38 86.71,35.78 85.68,36.18 83.36,36.29 81.03,36.39 79.78,36.54 78.53,36.70 77.01,36.78 75.48,36.85 73.45,37.02 71.43,37.18 69.67,37.15 67.92,37.12 65.73,36.68 63.54,36.25 62.38,36.18 61.23,36.12 60.14,36.13 59.05,36.13 57.11,35.72 55.18,35.31 52.57,34.82 49.96,34.34 47.11,33.74 44.25,33.13 42.09,32.52 39.93,31.91 38.73,31.78 37.54,31.65 35.46,31.28 33.37,30.90 31.48,30.34 29.59,29.77 28.19,29.23 26.80,28.69 25.56,28.58 24.32,28.47 22.88,28.08 21.44,27.70 20.31,27.15 19.19,26.61 17.74,26.01 16.29,25.41 14.81,24.94 13.32,24.46 12.18,23.93 11.04,23.41 9.56,22.92 8.07,22.44 7.11,21.83 6.15,21.22 4.91,20.63 3.66,20.04 2.19,18.87 0.72,17.71 -0.30,16.70 -1.33,15.69 -2.05,14.43 -2.77,13.16 -3.75,11.69 -4.73,10.23 -5.68,8.32 -6.63,6.41 -6.93,5.35 -7.22,4.30 -7.83,2.50 -8.43,0.70 -8.58,-0.72 -8.74,-2.16 -9.34,-3.86 -9.94,-5.57 -10.01,-7.84 -10.09,-10.11 -10.01,-10.64 -9.93,-11.18 -9.68,-11.65 -9.43,-12.13 -9.04,-12.51 -8.65,-12.88 -8.16,-13.11 -7.68,-13.34 -7.14,-13.41 -6.60,-13.47 -6.07,-13.36 -5.55,-13.25 -5.08,-12.97 -4.62,-12.70 -4.26,-12.29 -3.91,-11.88 -3.71,-11.38 -3.50,-10.88 -3.47,-10.34 -3.43,-9.80 -3.57,-9.28 -3.71,-8.76 -4.01,-8.31 -4.31,-7.86 -4.74,-7.53 -5.17,-7.20 -5.68,-7.02 -6.19,-6.85 -6.73,-6.84 -7.27,-6.84 -7.78,-7.01 -8.29,-7.17 -8.73,-7.50 -9.16,-7.82 -9.47,-8.27 -9.77,-8.71 -9.92,-9.23 -10.07,-9.75 -10.05,-10.29 -10.02,-10.83 -9.83,-11.33 -9.63,-11.83 -9.28,-12.25 -8.94,-12.66 -8.48,-12.94 -8.02,-13.23 -7.49,-13.35 -6.96,-13.47 -6.43,-13.41 -5.89,-13.36 -5.40,-13.14 -4.90,-12.91 -4.51,-12.55 -4.11,-12.18 -3.86,-11.70 -3.60,-11.23 -3.51,-10.69 -3.42,-10.16 -3.42,-10.16 -3.42,-10.16 -3.43,-7.71 -3.45,-5.25 -2.94,-4.04 -2.42,-2.82 -2.27,-1.26 -2.13,0.30 -1.63,1.50 -1.13,2.71 -0.61,4.25 -0.09,5.78 0.60,7.04 1.30,8.30 2.49,10.42 3.68,12.54 5.38,13.76 7.09,14.97 8.28,15.63 9.48,16.28 10.67,17.00 11.86,17.72 13.19,18.35 14.52,18.98 15.90,19.33 17.29,19.69 18.56,20.56 19.83,21.43 21.33,22.19 22.84,22.95 23.92,23.29 25.00,23.64 26.78,24.16 28.56,24.69 29.55,25.20 30.55,25.71 32.75,26.10 34.95,26.49 36.59,27.02 38.23,27.55 39.51,27.83 40.79,28.12 42.94,28.50 45.08,28.87 48.12,29.38 51.16,29.89 52.45,30.26 53.74,30.63 54.87,30.85 56.01,31.07 57.64,31.35 59.28,31.63 60.50,31.76 61.72,31.88 62.94,32.09 64.16,32.30 66.05,32.51 67.93,32.73 69.67,32.69 71.41,32.66 73.41,32.79 75.41,32.92 76.88,32.95 78.35,32.97 79.58,33.00 80.81,33.04 82.78,32.86 84.75,32.67 86.21,32.40 87.66,32.13 89.07,32.21 90.48,32.29 93.01,32.21 95.53,32.13 98.34,31.97 101.15,31.81 102.87,31.54 104.58,31.27 106.75,31.21 108.92,31.16 111.75,31.02 114.58,30.88 119.78,30.56 124.98,30.23 128.73,30.23 132.48,30.24 136.73,30.24 140.98,30.24 144.89,30.25 148.80,30.26 153.42,30.27 158.04,30.29 161.30,30.33 164.57,30.37 166.89,30.46 169.22,30.55 171.61,30.78 174.01,31.00 177.21,31.50 180.41,32.00 185.00,32.43 189.59,32.86 192.03,33.12 194.47,33.37 197.78,33.96 201.10,34.54 205.93,35.16 210.76,35.78 215.97,36.48 221.17,37.17 224.43,37.29 227.69,37.42 231.43,37.70 235.16,37.99 238.00,37.90 240.84,37.81 244.48,37.59 248.13,37.38 253.69,36.88 259.25,36.38 262.52,35.96 265.80,35.54 269.55,35.32 273.31,35.10 278.40,34.58 283.49,34.06 287.90,33.59 292.30,33.13 298.79,32.79 305.28,32.46 308.29,32.45 311.30,32.44 314.56,32.40 317.83,32.37 321.71,32.29 325.59,32.22 330.89,32.04 336.20,31.86 341.16,31.44 346.12,31.01 350.82,30.78 355.51,30.55 359.12,29.99 362.72,29.43 367.37,28.88 372.01,28.33 379.06,27.80 386.10,27.27 391.26,26.78 396.42,26.30 400.23,25.92 404.04,25.54 408.31,25.42 412.58,25.30 418.81,25.02 425.04,24.73 431.46,24.06 437.88,23.38 440.65,23.32 443.41,23.25 446.12,23.11 448.83,22.96 452.29,22.61 455.75,22.26 459.93,22.20 464.11,22.14 467.86,22.00 471.61,21.87 477.46,21.54 483.31,21.22 487.08,21.22 490.84,21.22 493.61,21.22 496.37,21.23 499.06,21.23 501.76,21.24 505.04,21.26 508.33,21.27 513.01,21.31 517.70,21.34 521.11,21.43 524.53,21.52 527.19,21.72 529.86,21.93 532.92,22.40 535.97,22.86 540.97,23.21 545.97,23.56 548.67,23.61 551.37,23.67 554.67,23.81 557.96,23.94 562.58,24.26 567.19,24.58 572.06,24.57 576.92,24.55 579.22,24.52 581.53,24.49 583.90,24.42 586.27,24.35 588.83,24.19 591.39,24.03 595.24,23.63 599.09,23.24 604.96,23.09 610.82,22.94 616.33,22.57 621.83,22.21 625.55,22.12 629.26,22.03 632.70,21.82 636.14,21.61 641.21,21.11 646.29,20.62 649.19,20.20 652.10,19.79 654.98,19.59 657.86,19.39 661.71,18.92 665.57,18.45 671.52,18.10 677.46,17.76 681.46,17.72 685.46,17.69 688.02,17.61 690.58,17.53 693.57,17.34 696.56,17.16 700.64,16.72 704.73,16.29 708.05,16.08 711.38,15.86 713.45,15.33 715.53,14.79 717.93,14.34 720.33,13.89 723.88,12.83 727.43,11.76 730.52,10.79 733.61,9.82 736.06,9.21 738.51,8.59 740.14,7.98 741.76,7.37 743.89,6.59 746.02,5.82 748.68,4.89 751.33,3.95 753.67,3.38 756.01,2.81 757.37,2.22 758.73,1.62 760.36,0.91 761.98,0.20 764.00,-0.70 766.02,-1.60 768.17,-3.04 770.31,-4.49 771.61,-5.21 772.90,-5.93 774.26,-6.80 775.62,-7.68 777.30,-8.85 778.98,-10.01 780.51,-11.08 782.05,-12.14 782.56,-13.56 783.07,-14.97 783.62,-15.93 784.17,-16.88 784.29,-18.29 784.41,-19.70 784.49,-20.84 784.57,-21.98 784.54,-23.89 784.51,-25.80 784.39,-28.01 784.27,-30.22 784.31,-31.61 784.35,-33.00 784.21,-35.52 784.06,-38.03 784.15,-40.23 784.23,-42.42 784.29,-43.68 784.34,-44.94 784.37,-46.39 784.41,-47.83 784.49,-48.94 784.58,-50.05 784.67,-51.13 784.77,-52.21 784.80,-54.00 784.83,-55.78 784.84,-57.70 784.85,-59.61 784.79,-62.59 784.73,-65.57 784.78,-67.24 784.82,-68.91 784.89,-70.56 784.95,-72.21 785.04,-73.81 785.12,-75.41 785.09,-77.65 785.07,-79.89 785.00,-83.64 784.94,-87.38 784.80,-90.85 784.65,-94.32 784.30,-98.05 783.94,-101.78 783.88,-105.07 783.83,-108.37 783.68,-110.82 783.54,-113.27 783.21,-116.87 782.87,-120.46 782.84,-122.68 782.81,-124.90 782.75,-127.08 782.69,-129.26 782.55,-131.35 782.40,-133.45 782.05,-136.26 781.69,-139.07 781.63,-142.44 781.57,-145.82 781.43,-149.17 781.30,-152.52 780.96,-155.26 780.62,-158.01 780.59,-160.48 780.56,-162.95 780.50,-165.72 780.44,-168.48 780.30,-171.95 780.16,-175.42 779.82,-179.87 779.48,-184.33 779.45,-188.58 779.42,-192.84 779.35,-196.02 779.28,-199.19 779.12,-202.85 778.95,-206.51 778.56,-211.40 778.16,-216.28 778.00,-220.07 777.84,-223.87 777.46,-229.05 777.08,-234.23 776.95,-237.19 776.82,-240.15 776.50,-243.46 776.18,-246.77 776.21,-250.58 776.24,-254.40 776.30,-259.56 776.36,-264.73 776.50,-272.32 776.64,-279.91 776.97,-285.48 777.30,-291.05 777.32,-295.10 777.34,-299.15 777.39,-304.10 777.44,-309.05 777.55,-315.38 777.66,-321.70 777.92,-327.32 778.18,-332.95 778.03,-336.38 777.88,-339.81 777.52,-343.45 777.16,-347.09 777.09,-351.70 777.01,-356.31 776.84,-362.56 776.67,-368.81 776.25,-373.00 775.84,-377.19 775.63,-383.11 775.42,-389.03 774.94,-395.40 774.45,-401.76 774.07,-406.13 773.69,-410.50 773.56,-416.81 773.43,-423.11 773.12,-425.97 772.82,-428.83 772.87,-432.33 772.92,-435.82 773.05,-440.26 773.18,-444.69 773.49,-448.09 773.80,-451.50 773.78,-454.33 773.76,-457.16 773.74,-460.76 773.71,-464.37 773.68,-466.75 773.65,-469.14 773.60,-471.71 773.55,-474.27 773.49,-478.02 773.43,-481.77 773.39,-483.73 773.36,-485.70 773.25,-488.03 773.15,-490.37 773.00,-494.32 772.85,-498.26 772.75,-499.97 772.65,-501.69 772.36,-504.02 772.07,-506.35 771.67,-508.09 771.27,-509.82 771.26,-510.96 771.26,-512.09 771.23,-513.23 771.20,-514.37 771.12,-515.55 771.04,-516.73 770.83,-518.05 770.62,-519.37 770.07,-520.98 769.52,-522.59 769.02,-524.85 768.52,-527.11 768.38,-528.61 768.24,-530.12 767.79,-532.46 767.35,-534.80 767.22,-536.32 767.08,-537.84 766.64,-539.53 766.19,-541.22 765.68,-542.42 765.16,-543.62 765.04,-545.05 764.91,-546.47 764.51,-547.64 764.10,-548.81 763.07,-550.33 762.03,-551.86 760.95,-553.04 759.86,-554.21 758.81,-555.30 757.76,-556.39 756.71,-557.01 755.65,-557.63 754.30,-558.20 752.95,-558.76 751.51,-558.88 750.08,-558.99 748.81,-559.57 747.55,-560.15 746.44,-560.23 745.33,-560.31 744.18,-560.42 743.03,-560.54 741.90,-560.70 740.77,-560.87 738.87,-561.03 736.97,-561.20 734.17,-561.48 731.37,-561.75 729.92,-561.85 728.47,-561.95 726.58,-562.00 724.69,-562.04 722.52,-562.03 720.36,-562.02 717.55,-561.99 714.75,-561.97 710.43,-561.90 706.12,-561.84 702.10,-561.70 698.08,-561.55 695.27,-561.19 692.46,-560.83 689.83,-560.77 687.20,-560.70 684.07,-560.54 680.93,-560.38 677.23,-559.99 673.53,-559.61 669.52,-559.47 665.51,-559.33 659.82,-559.01 654.13,-558.68 650.73,-558.68 647.33,-558.68 643.91,-558.68 640.49,-558.68 637.02,-558.69 633.54,-558.69 629.94,-558.69 626.33,-558.70 622.43,-558.71 618.53,-558.72 613.91,-558.74 609.30,-558.77 603.00,-558.83 596.70,-558.89 594.10,-559.03 591.50,-559.17 588.58,-559.49 585.67,-559.81 582.46,-559.81 579.25,-559.82 575.50,-559.82 571.75,-559.83 566.75,-559.84 561.75,-559.85 558.36,-559.88 554.97,-559.90 551.57,-559.97 548.17,-560.03 544.74,-560.18 541.31,-560.34 537.97,-560.69 534.63,-561.04 531.19,-561.11 527.75,-561.18 524.23,-561.34 520.71,-561.51 517.14,-561.89 513.57,-562.27 508.86,-562.40 504.15,-562.54 497.70,-562.87 491.25,-563.19 483.63,-563.19 476.00,-563.19 471.01,-563.19 466.02,-563.19 462.66,-563.19 459.30,-563.19 455.97,-563.18 452.64,-563.18 449.37,-563.18 446.11,-563.17 443.01,-563.16 439.90,-563.15 436.41,-563.12 432.91,-563.10 429.26,-563.04 425.61,-562.98 420.86,-562.84 416.11,-562.70 413.12,-562.36 410.12,-562.02 407.07,-561.99 404.01,-561.96 400.62,-561.89 397.24,-561.82 393.85,-561.66 390.45,-561.51 386.90,-561.12 383.35,-560.74 378.94,-560.60 374.53,-560.47 368.71,-560.15 362.89,-559.84 354.45,-559.09 346.01,-558.34 341.50,-558.10 336.98,-557.87 331.60,-557.32 326.22,-556.76 319.72,-556.23 313.22,-555.70 309.27,-555.19 305.32,-554.69 301.36,-554.26 297.40,-553.84 293.54,-553.61 289.67,-553.39 285.05,-552.85 280.43,-552.31 274.94,-551.80 269.44,-551.30 265.61,-550.87 261.77,-550.44 258.20,-550.21 254.63,-549.98 250.68,-549.42 246.74,-548.86 242.79,-548.30 238.84,-547.74 234.88,-547.19 230.92,-546.64 226.94,-546.10 222.96,-545.57 218.94,-545.08 214.91,-544.58 210.78,-544.19 206.65,-543.79 202.38,-543.63 198.11,-543.47 193.29,-543.09 188.48,-542.70 181.88,-542.57 175.27,-542.43 172.47,-542.10 169.67,-541.77 167.06,-541.77 164.45,-541.77 162.13,-541.77 159.81,-541.77 157.40,-541.77 154.99,-541.76 152.37,-541.76 149.75,-541.76 147.40,-541.75 145.04,-541.75 142.55,-541.74 140.06,-541.74 137.24,-541.73 134.42,-541.72 130.84,-541.71 127.26,-541.70 124.94,-541.69 122.61,-541.67 120.19,-541.65 117.77,-541.63 115.13,-541.60 112.48,-541.57 110.07,-541.53 107.65,-541.50 104.26,-541.44 100.86,-541.39 98.97,-541.39 97.08,-541.40 94.92,-541.33 92.76,-541.26 90.72,-541.19 88.68,-541.13 86.93,-541.13 85.18,-541.13 83.35,-541.11 81.53,-541.09 79.51,-541.00 77.50,-540.92 75.81,-540.90 74.13,-540.89 72.44,-540.87 70.76,-540.86 69.08,-540.84 67.41,-540.82 65.75,-540.80 64.09,-540.79 62.48,-540.79 60.87,-540.78 59.35,-540.82 57.83,-540.85 56.58,-540.97 55.33,-541.09 53.94,-541.31 52.55,-541.53 51.31,-541.88 50.06,-542.23 48.12,-542.23 46.18,-542.23 43.86,-542.24 41.54,-542.25 39.56,-542.38 37.58,-542.52 36.34,-542.58 35.10,-542.64 32.84,-543.07 30.58,-543.49 29.20,-543.44 27.82,-543.39 26.00,-543.40 24.18,-543.42 23.01,-543.39 21.84,-543.37 20.60,-543.33 19.36,-543.29 18.01,-543.20 16.66,-543.11 15.26,-543.02 13.85,-542.93 12.58,-542.43 11.30,-541.94 10.09,-541.81 8.88,-541.68 6.74,-541.11 4.60,-540.54 3.54,-540.18 2.47,-539.81 1.37,-538.77 0.27,-537.72 -0.72,-537.14 -1.72,-536.56 -2.61,-535.08 -3.50,-533.60 -4.06,-532.40 -4.62,-531.21 -5.36,-530.09 -6.10,-528.97 -6.69,-527.32 -7.28,-525.68 -7.79,-524.71 -8.30,-523.74 -8.69,-522.09 -9.08,-520.44 -9.38,-519.40 -9.68,-518.36 -10.26,-515.64 -10.84,-512.92 -11.30,-510.87 -11.75,-508.81 -11.78,-506.79 -11.80,-504.77 -11.85,-502.94 -11.90,-501.11 -11.97,-499.42 -12.05,-497.73 -12.13,-496.02 -12.21,-494.32 -12.27,-492.52 -12.33,-490.72 -12.29,-489.54 -12.25,-488.37 -12.02,-486.68 -11.79,-484.99 -11.92,-482.96 -12.06,-480.92 -12.42,-479.80 -12.78,-478.68 -12.82,-477.04 -12.86,-475.41 -12.92,-473.83 -12.98,-472.25 -13.08,-470.82 -13.18,-469.39 -13.23,-467.56 -13.29,-465.72 -13.32,-463.69 -13.34,-461.65 -13.35,-459.16 -13.36,-456.66 -13.38,-453.07 -13.40,-449.48 -13.45,-446.36 -13.50,-443.25 -13.61,-439.75 -13.72,-436.24 -13.98,-431.91 -14.25,-427.58 -14.10,-421.87 -13.96,-416.16 -13.62,-412.47 -13.28,-408.78 -13.25,-404.82 -13.22,-400.86 -13.15,-396.86 -13.08,-392.87 -12.91,-388.82 -12.75,-384.76 -12.35,-380.43 -11.94,-376.10 -11.77,-371.36 -11.60,-366.63 -11.18,-361.49 -10.77,-356.35 -10.56,-351.21 -10.36,-346.07 -9.87,-340.75 -9.38,-335.42 -8.99,-329.76 -8.60,-324.10 -8.46,-318.50 -8.31,-312.89 -7.96,-307.24 -7.61,-301.58 -7.56,-295.98 -7.50,-290.38 -7.37,-284.83 -7.23,-279.29 -6.92,-273.76 -6.61,-268.24 -6.63,-262.95 -6.66,-257.66 -6.71,-252.08 -6.77,-246.50 -6.91,-241.00 -7.05,-235.50 -7.37,-229.49 -7.69,-223.48 -7.69,-217.65 -7.69,-211.81 -7.68,-205.70 -7.68,-199.60 -7.66,-193.61 -7.65,-187.62 -7.61,-181.92 -7.58,-176.22 -7.51,-171.19 -7.43,-166.15 -7.25,-161.17 -7.07,-156.19 -6.65,-151.23 -6.22,-146.28 -5.99,-141.56 -5.76,-136.85 -5.21,-131.77 -4.66,-126.68 -4.12,-121.58 -3.59,-116.48 -3.10,-111.33 -2.60,-106.18 -2.21,-100.94 -1.81,-95.69 -1.64,-91.06 -1.47,-86.43 -1.08,-81.54 -0.68,-76.64 -0.51,-72.10 -0.35,-67.55 0.03,-63.58 0.43,-59.60 0.58,-55.72 0.73,-51.83 1.09,-47.89 1.45,-43.95 1.51,-40.16 1.58,-36.36 1.72,-32.76 1.87,-29.16 2.20,-25.86 2.54,-22.56 2.54,-19.53 2.54,-16.50 2.52,-13.94 2.49,-11.38 2.40,-9.16 2.30,-6.93 2.01,-5.08 1.73,-3.23 1.67,-1.61 1.61,0 1.58,0.19 1.56,0.38 1.49,0.56 1.42,0.74 1.31,0.90 1.20,1.06 1.06,1.19 0.91,1.32 0.74,1.41 0.57,1.50 0.38,1.55 0.19,1.59 -0.00,1.59 -0.19,1.59 -0.38,1.55 -0.57,1.50 -0.74,1.41 -0.91,1.32 -1.06,1.19 -1.20,1.06 -1.31,0.90 -1.42,0.74 -1.49,0.56 -1.56,0.38 -1.58,0.19 -1.61,-0.00 -1.61,-0.00 L -1.61,0 Z"/>
    </g>
    <g stroke-linecap="round" transform="matrix(1, 0, 0, 1, -484.357788, 29.319483)">
      <g transform="translate(660.9874581832764 58.07089010451489) rotate(0 -8.45070422535207 12.957720689370575)">
        <path d="M-3.14 0 C-5.06 1.96, -14.8 7.46, -14.65 11.78 C-14.5 16.1, -4.32 23.56, -2.25 25.92 M-3.14 0 C-5.06 1.96, -14.8 7.46, -14.65 11.78 C-14.5 16.1, -4.32 23.56, -2.25 25.92" stroke="#000000" stroke-width="4" fill="none"/>
      </g>
    </g>
    <g stroke-linecap="round" transform="matrix(1, 0, 0, 1, -484.357788, 29.319483)">
      <g transform="translate(698.232047282529 57.50756140183012) rotate(0 -3.6218001192791007 12.957688452492278)">
        <path d="M-10.38 0 C-7.94 1.96, 4.45 7.46, 4.27 11.78 C4.08 16.1, -8.88 23.56, -11.51 25.92 M-10.38 0 C-7.94 1.96, 4.45 7.46, 4.27 11.78 C4.08 16.1, -8.88 23.56, -11.51 25.92" stroke="#000000" stroke-width="4" fill="none"/>
      </g>
    </g>
    <g stroke-linecap="round" transform="matrix(0.99993, -0.011837, 0.011837, 0.99993, 249.610321, 82.261917)">
      <path d="M9.09 0 M9.09 0 C172.39 0.89, 339.71 -0.41, 428.47 0 M9.09 0 C142.06 4.34, 277.05 3.78, 428.47 0 M428.47 0 C436.59 -3.41, 439 4.28, 437.57 9.09 M428.47 0 C432.59 -2.47, 434.25 2.38, 437.57 9.09 M437.57 9.09 C437.44 17.35, 437.52 19.81, 437.57 27.28 M437.57 9.09 C436.52 13.01, 438.62 18.98, 437.57 27.28 M437.57 27.28 C434.42 33.4, 435.19 37.75, 428.47 36.37 M437.57 27.28 C439.4 33.44, 432.02 37.85, 428.47 36.37 M428.47 36.37 C285.66 36.26, 146.29 36.6, 9.09 36.37 M428.47 36.37 C310.25 33.24, 191.81 33.06, 9.09 36.37 M9.09 36.37 C7.02 37.35, 1.03 36.93, 0 27.28 M9.09 36.37 C-0.13 32.39, 4.18 33.26, 0 27.28 M0 27.28 C2.4 21.45, 3.62 13.13, 0 9.09 M0 27.28 C-0.54 19.14, 1.22 12.55, 0 9.09 M0 9.09 C-3.74 5.98, 4.7 0.47, 9.09 0 M0 9.09 C1.25 3.56, 4.68 0.99, 9.09 0" stroke="#000000" stroke-width="2" fill="none"/>
    </g>
    <g stroke-linecap="round" style="" transform="matrix(0.851206, 0, 0, 1.466004, -367.86026, -17.852133)">
      <g transform="translate(556.5006055223248 100.90580777366046) rotate(0 391.9669457819314 -3.454777094349268)">
        <path d="M-2.13 0.32 C128.77 -0.49, 654.4 -6.69, 786.06 -7.23 M1.91 -1.97 C132.27 -2.3, 652.45 -4.01, 783.2 -4.92" stroke="#000000" stroke-width="2" fill="none"/>
      </g>
    </g>
    <g stroke-linecap="round" transform="matrix(1, 0, 0, 1, -484.357788, 29.319483)">
      <g transform="translate(1187.7006177293565 61.705795566629206) rotate(0 14.39996337890625 -0.399993896484375)">
        <path d="M0 0 C4.8 -0.13, 24 -0.67, 28.8 -0.8 M0 0 C4.8 -0.13, 24 -0.67, 28.8 -0.8" stroke="#000000" stroke-width="4" fill="none"/>
      </g>
    </g>
    <g stroke-linecap="round" transform="matrix(1, 0, 0, 1, -484.357788, 29.319483)">
      <g transform="translate(1202.100642143419 47.30586270530108) rotate(0 -0.4000244140625 15.599990844726562)">
        <path d="M0 0 C-0.13 5.2, -0.67 26, -0.8 31.2 M0 0 C-0.13 5.2, -0.67 26, -0.8 31.2" stroke="#000000" stroke-width="4" fill="none"/>
      </g>
    </g>
    <g transform="matrix(1, 0, 0, 1, 334.542877, 87.225296)">
      <text style="white-space: pre;" x="0" y="18" text-anchor="start" font-size="20px" font-family="Virgil, Segoe UI Emoji" fill="#999" direction="ltr">https://rabbet/first-page</text>
    </g>
    <g transform="matrix(1, 0, 0, 1, 152.553375, 224.906967)">
      <text style="font-family: Virgil, &quot;Segoe UI Emoji&quot;; font-size: 36px; font-weight: 700; white-space: pre;" x="0" y="32">My first Rabbet Page</text>
    </g>
    <g transform="matrix(1, 0, 0, 1, 152.203339, 279.306976)">
      <text style="white-space: pre;" x="0" y="25" text-anchor="start" font-size="28px" font-family="Virgil, Segoe UI Emoji" fill="#666" direction="ltr">My very first Rabbet Page.</text>
      <text style="white-space: pre;" x="0" y="60" text-anchor="start" font-size="28px" font-family="Virgil, Segoe UI Emoji" fill="#666" direction="ltr">Rabbet Rocks!!</text>
    </g>
    <g transform="matrix(1, 0, 0, 1, 155.003448, 402.807037)">
      <text style="font-family: Virgil, &quot;Segoe UI Emoji&quot;; font-size: 28px; font-weight: 700; white-space: pre;" x="0" y="25">Visit Rabbet</text>
    </g>
    <g transform="matrix(1, 0, 0, 1, 372.752777, 402.184204)">
      <text style="white-space: pre;" x="0" y="25" text-anchor="start" font-size="28px" font-family="Virgil, Segoe UI Emoji" fill="#666" direction="ltr">https://rabbet.vercel.app</text>
    </g>
    <g stroke-linecap="round" transform="matrix(1, 0, 0, 1, -568.797974, 24.628391)">
      <g transform="translate(941.5506543504498 411.4558260842072) rotate(0 170.94062383435664 0.7692276153713351)">
        <path d="M-0.58 -0.99 C56.96 -0.18, 285.85 1.93, 342.46 2.53" stroke="#666" stroke-dasharray="8 9" stroke-width="1.5" fill="none"/>
      </g>
    </g>
  </g>
</svg>