<?xml version="1.0" encoding="utf-8"?>
<svg version="1.1" viewBox="0 0 567 335" width="567px" height="335px" xmlns="http://www.w3.org/2000/svg">
  <g stroke-linecap="round" transform="matrix(1, 0, 0, 1, 78.764778, -221.868423)">
    <path d="M10 0 M10 0 C112.23 0.28, 217.03 2.06, 384.4 0 M10 0 C120.16 -1.28, 232.25 -0.54, 384.4 0 M384.4 0 C391.19 -0.65, 390.59 -0.36, 394.4 10 M384.4 0 C392.14 -1.33, 391.85 0.79, 394.4 10 M394.4 10 C395.35 17.03, 394.33 22.41, 394.4 30 M394.4 10 C395.83 15.32, 393.35 19.37, 394.4 30 M394.4 30 C392.76 38.12, 388.3 40.72, 384.4 40 M394.4 30 C395.75 36.66, 394.07 38.06, 384.4 40 M384.4 40 C293 42.21, 195.14 40.37, 10 40 M384.4 40 C292.45 37.12, 198.97 37.79, 10 40 M10 40 C0.74 42.91, -3.49 34.23, 0 30 M10 40 C1.33 36.05, -1.25 39.31, 0 30 M0 30 C1.89 20.89, -0.64 14.08, 0 10 M0 30 C-0.95 24.59, -1.54 19.15, 0 10 M0 10 C3.27 7.29, 2.28 -0.12, 10 0 M0 10 C-0.45 -0.36, -0.98 -0.59, 10 0" stroke="#000000" stroke-width="1" fill="none"/>
  </g>
  <g transform="matrix(1, 0, 0, 1, 88.975487, -292.004181)">
    <text style="font-family: Virgil, &quot;Segoe UI Emoji&quot;; font-size: 28px; font-weight: 700; white-space: pre;" x="0" y="25">Page</text>
  </g>
  <g transform="matrix(1, 0, 0, 1, 91.16935, -243.632172)">
    <text x="0" y="18" font-family="Virgil, Segoe UI Emoji" font-size="20px" fill="#000000" text-anchor="start" style="white-space: pre;" direction="ltr">Label</text>
  </g>
  <g transform="matrix(1, 0, 0, 1, 90.169716, -214.623184)">
    <text x="0" y="18" font-family="Virgil, Segoe UI Emoji" font-size="20px" fill="#aaa" text-anchor="start" style="white-space: pre;" direction="ltr">My first Rabbet Page</text>
  </g>
  <g transform="matrix(1, 0, 0, 1, 74.632484, 60.361389)">
    <text style="font-family: Virgil, &quot;Segoe UI Emoji&quot;; font-size: 28px; font-weight: 700; white-space: pre;" x="0" y="25">Links</text>
  </g>
  <g transform="matrix(1, 0, 0, 1, 79.635429, 113.010162)">
    <text x="0" y="18" font-family="Virgil, Segoe UI Emoji" font-size="20px" fill="#000000" text-anchor="start" style="white-space: pre;" direction="ltr">1.</text>
  </g>
  <g stroke-linecap="round" transform="matrix(1, 0, 0, 1, 108.435364, 102.310242)">
    <path d="M8.8 0 M8.8 0 C136 2.03, 262.86 1.81, 342.4 0 M8.8 0 C135.83 3.85, 264.14 3.85, 342.4 0 M342.4 0 C347.86 3.05, 348.21 -0.94, 351.2 8.8 M342.4 0 C347.82 -0.65, 347.2 5.31, 351.2 8.8 M351.2 8.8 C350.37 17.38, 350.09 20.49, 351.2 26.4 M351.2 8.8 C351.59 14.5, 352.53 17.74, 351.2 26.4 M351.2 26.4 C347.2 32.63, 352.23 34.17, 342.4 35.2 M351.2 26.4 C353.1 28.36, 347.56 38.58, 342.4 35.2 M342.4 35.2 C243.34 31.34, 141.78 31.95, 8.8 35.2 M342.4 35.2 C245.82 34.06, 148.43 33.44, 8.8 35.2 M8.8 35.2 C5.57 35.1, -3.73 33.38, 0 26.4 M8.8 35.2 C-0.44 38.83, -0.39 35.97, 0 26.4 M0 26.4 C1.41 24.07, -0.16 19.99, 0 8.8 M0 26.4 C-1.07 20.28, 1.77 11.3, 0 8.8 M0 8.8 C-0.92 -0.33, 6.24 3.13, 8.8 0 M0 8.8 C-0.7 3.9, 0.01 1.61, 8.8 0" stroke="#000000" stroke-width="1" fill="none"/>
  </g>
  <g transform="matrix(1, 0, 0, 1, 119.635376, 110.110199)">
    <text x="0" y="15" font-family="Virgil, Segoe UI Emoji" font-size="16px" fill="#aaa" text-anchor="start" style="white-space: pre;" direction="ltr">Visit Rabbet</text>
  </g>
  <g stroke-linecap="round" transform="matrix(1, 0, 0, 1, 109.03537, 149.110168)">
    <path d="M8.8 0 M8.8 0 C114.25 -1.39, 217.25 0.41, 342.4 0 M8.8 0 C103.24 1.56, 198.92 1.4, 342.4 0 M342.4 0 C350.52 1.03, 354.64 5.78, 351.2 8.8 M342.4 0 C346.36 -3.19, 351.84 7.44, 351.2 8.8 M351.2 8.8 C348.81 14.01, 348.01 16.47, 351.2 26.4 M351.2 8.8 C351.42 12.72, 351.75 15.54, 351.2 26.4 M351.2 26.4 C350.12 29.68, 351.73 38.93, 342.4 35.2 M351.2 26.4 C346.62 35.55, 351.44 31.87, 342.4 35.2 M342.4 35.2 C271.02 29.25, 197.52 32.27, 8.8 35.2 M342.4 35.2 C275.04 39.68, 208.93 38.63, 8.8 35.2 M8.8 35.2 C-0.65 31.48, -2.11 34.89, 0 26.4 M8.8 35.2 C6.03 32.95, 0.56 30.61, 0 26.4 M0 26.4 C1.12 18.6, 1.59 14.87, 0 8.8 M0 26.4 C1.87 21.44, -0.07 14.28, 0 8.8 M0 8.8 C-0.69 4.45, -0.27 3.58, 8.8 0 M0 8.8 C1.83 -0.06, 4.91 -0.23, 8.8 0" stroke="#000000" stroke-width="1" fill="none"/>
  </g>
  <g transform="matrix(1, 0, 0, 1, 120.235382, 156.910156)">
    <text x="0" y="15" font-family="Virgil, Segoe UI Emoji" font-size="16px" fill="#aaa" text-anchor="start" style="white-space: pre;" direction="ltr">https://rabbet.vercel.app</text>
  </g>
  <g stroke-linecap="round" transform="matrix(1, 0, 0, 1, 78.723228, 197.734375)">
    <path d="M9.84 0 M9.84 0 C34.74 -4.45, 63.66 -0.86, 87.58 0 M9.84 0 C35.76 0.39, 59.01 1.13, 87.58 0 M87.58 0 C98.01 0.58, 99.7 3.99, 97.42 9.84 M87.58 0 C91.06 1.3, 97.23 3.01, 97.42 9.84 M97.42 9.84 C94.54 17.75, 95.19 26.91, 97.42 29.53 M97.42 9.84 C99.11 15.62, 98.93 18.97, 97.42 29.53 M97.42 29.53 C94.92 35.46, 90.71 38.2, 87.58 39.38 M97.42 29.53 C96.43 38.45, 96.48 37.25, 87.58 39.38 M87.58 39.38 C60.23 36.41, 37.86 38.23, 9.84 39.38 M87.58 39.38 C63.26 41.57, 40.58 39.31, 9.84 39.38 M9.84 39.38 C0.45 39.93, -3.5 32.87, 0 29.53 M9.84 39.38 C6 38.37, 0.49 35.04, 0 29.53 M0 29.53 C-2.84 28.74, 1.95 22.38, 0 9.84 M0 29.53 C-1.83 23.43, -1.48 20.87, 0 9.84 M0 9.84 C-2.36 2.44, -0.01 1.37, 9.84 0 M0 9.84 C-3.31 4.86, -0.99 0.09, 9.84 0" stroke="#000000" stroke-width="1" fill="none"/>
  </g>
  <g transform="matrix(1, 0, 0, 1, 93.731163, 205.154785)">
    <text x="0" y="18" font-family="Virgil, Segoe UI Emoji" font-size="20px" fill="#000000" text-anchor="start" style="white-space: pre;" direction="ltr">Save</text>
  </g>
  <g stroke-linecap="round" transform="matrix(1, 0, 0, 1, 79.362633, -146.505554)">
    <path d="M10 0 M10 0 C84.47 -1.55, 160.31 -2.52, 384.4 0 M10 0 C124.45 -2.72, 237.55 -3.18, 384.4 0 M384.4 0 C388.11 3.31, 395.89 6.03, 394.4 10 M384.4 0 C386.63 -3.21, 390.07 4.4, 394.4 10 M394.4 10 C397.66 15.42, 396.53 29, 394.4 30 M394.4 10 C394.03 15.77, 395.05 24.29, 394.4 30 M394.4 30 C398.22 33.92, 389.06 43.79, 384.4 40 M394.4 30 C390.5 40, 388.05 40.03, 384.4 40 M384.4 40 C253.5 42.97, 118.45 43.69, 10 40 M384.4 40 C266.78 44.12, 151.21 44.07, 10 40 M10 40 C3.49 37.5, 2.75 35.49, 0 30 M10 40 C1.82 41.66, 3.73 37.86, 0 30 M0 30 C-0.91 25.92, 3.17 17.46, 0 10 M0 30 C-0.44 25.11, -2.01 18.34, 0 10 M0 10 C1.16 2.33, 3.25 0.97, 10 0 M0 10 C2.22 3.22, 2.42 0.64, 10 0" stroke="#000000" stroke-width="1" fill="none"/>
  </g>
  <g transform="matrix(1, 0, 0, 1, 91.767204, -168.269302)">
    <text x="0" y="18" font-family="Virgil, Segoe UI Emoji" font-size="20px" fill="#000000" text-anchor="start" style="white-space: pre;" direction="ltr">Slug</text>
  </g>
  <g transform="matrix(1, 0, 0, 1, 90.76757, -139.260315)">
    <text x="0" y="18" font-family="Virgil, Segoe UI Emoji" font-size="20px" fill="#aaa" text-anchor="start" style="white-space: pre;" direction="ltr">first-page</text>
  </g>
  <g stroke-linecap="round" transform="matrix(1, 0, 0, 1, 78.275681, -73.679443)">
    <path d="M28.8 0 M28.8 0 C133.14 1.1, 236.33 0.23, 369.07 0 M28.8 0 C104 -0.43, 178.16 1.67, 369.07 0 M369.07 0 C391.86 2.41, 394.9 10.82, 397.88 28.8 M369.07 0 C388.8 3.47, 397.15 6.79, 397.88 28.8 M397.88 28.8 C400.8 38.19, 398.05 55.48, 397.88 86.41 M397.88 28.8 C397.79 46.71, 397.03 60.91, 397.88 86.41 M397.88 86.41 C395.24 104.62, 387.74 118.39, 369.07 115.22 M397.88 86.41 C398.61 104.55, 385.24 113.7, 369.07 115.22 M369.07 115.22 C301.19 121.82, 227.75 117.25, 28.8 115.22 M369.07 115.22 C243.68 119.3, 117.37 118.75, 28.8 115.22 M28.8 115.22 C9.75 116.94, -2.1 105.39, 0 86.41 M28.8 115.22 C8.43 113.15, -2.63 108.3, 0 86.41 M0 86.41 C0.71 63.39, -0.89 40.22, 0 28.8 M0 86.41 C-1.56 71.21, -2.62 56.04, 0 28.8 M0 28.8 C1.14 8.21, 8.05 -2.14, 28.8 0 M0 28.8 C-2.18 10.1, 8.66 -4.5, 28.8 0" stroke="#000000" stroke-width="1" fill="none"/>
  </g>
  <g transform="matrix(1, 0, 0, 1, 94.158508, -95.443207)">
    <text x="0" y="18" font-family="Virgil, Segoe UI Emoji" font-size="20px" fill="#000000" text-anchor="start" style="white-space: pre;" direction="ltr">About</text>
  </g>
  <g transform="matrix(1, 0, 0, 1, 93.158813, -67.549713)">
    <text x="0" y="18" font-family="Virgil, Segoe UI Emoji" font-size="20px" fill="#aaa" text-anchor="start" style="white-space: pre;" direction="ltr">My very first Rabbet Page.</text>
    <text x="0" y="43" font-family="Virgil, Segoe UI Emoji" font-size="20px" fill="#aaa" text-anchor="start" style="white-space: pre;" direction="ltr">Rabbet Rocks!!</text>
  </g>
  <g transform="matrix(1, 0, 0, 1, 471.319519, -308.858002)" stroke="none" fill="#000000">
    <path d="M -33.25 -2.591 C -33.25 -2.591 -33.9 -2.803 -35.2 -3.228 C -36.5 -3.652 -37.717 -3.933 -38.85 -4.071 C -39.977 -4.208 -41.247 -4.433 -42.66 -4.747 C -44.073 -5.054 -45.477 -5.273 -46.87 -5.404 C -48.27 -5.534 -49.707 -5.632 -51.18 -5.698 C -52.647 -5.763 -54.127 -5.812 -55.62 -5.845 C -57.12 -5.877 -58.517 -5.887 -59.81 -5.874 C -61.097 -5.867 -62.487 -5.975 -63.98 -6.197 C -65.467 -6.426 -66.927 -6.586 -68.36 -6.678 C -69.793 -6.776 -71.283 -6.952 -72.83 -7.207 C -74.377 -7.462 -75.883 -7.641 -77.35 -7.746 C -78.817 -7.844 -80.433 -8.02 -82.2 -8.275 C -83.96 -8.536 -85.76 -8.824 -87.6 -9.138 C -89.433 -9.451 -91.287 -9.778 -93.16 -10.118 C -95.027 -10.457 -96.903 -10.8 -98.79 -11.147 C -100.677 -11.493 -102.567 -11.846 -104.46 -12.205 C -106.347 -12.558 -108.237 -12.911 -110.13 -13.264 C -112.023 -13.617 -113.917 -13.973 -115.81 -14.332 C -117.71 -14.685 -119.607 -15.041 -121.5 -15.4 C -123.393 -15.753 -125.393 -16.106 -127.5 -16.459 C -129.607 -16.818 -131.657 -17.174 -133.65 -17.527 C -135.643 -17.886 -137.607 -18.243 -139.54 -18.595 C -141.48 -18.955 -143.407 -19.311 -145.32 -19.664 C -147.233 -20.023 -149.14 -20.379 -151.04 -20.732 C -152.947 -21.091 -154.953 -21.447 -157.06 -21.8 C -159.173 -22.153 -161.247 -22.614 -163.28 -23.182 C -165.313 -23.757 -167.373 -24.156 -169.46 -24.378 C -171.54 -24.6 -173.593 -24.868 -175.62 -25.181 C -177.64 -25.489 -179.627 -25.809 -181.58 -26.142 C -183.527 -26.482 -185.46 -26.825 -187.38 -27.171 C -189.3 -27.517 -191.19 -27.762 -193.05 -27.906 C -194.91 -28.043 -196.697 -28.249 -198.41 -28.524 C -200.13 -28.791 -201.87 -28.981 -203.63 -29.092 C -205.397 -29.203 -207.09 -29.281 -208.71 -29.327 C -210.337 -29.373 -211.93 -29.406 -213.49 -29.425 C -215.05 -29.445 -216.6 -29.461 -218.14 -29.474 C -219.673 -29.481 -221.203 -29.487 -222.73 -29.494 C -224.25 -29.494 -225.663 -29.484 -226.97 -29.464 C -228.27 -29.438 -229.633 -29.428 -231.06 -29.435 C -232.48 -29.442 -233.9 -29.35 -235.32 -29.161 C -236.733 -28.965 -238.207 -28.821 -239.74 -28.729 C -241.28 -28.644 -242.813 -28.586 -244.34 -28.553 C -245.86 -28.514 -247.38 -28.488 -248.9 -28.475 C -250.42 -28.461 -251.793 -28.344 -253.02 -28.122 C -254.247 -27.893 -255.483 -27.713 -256.73 -27.583 C -257.97 -27.452 -259.293 -27.37 -260.7 -27.338 C -262.113 -27.312 -263.553 -27.295 -265.02 -27.289 C -266.487 -27.289 -267.97 -27.292 -269.47 -27.298 C -270.963 -27.298 -272.433 -27.2 -273.88 -27.004 C -275.327 -26.808 -276.823 -26.668 -278.37 -26.583 C -279.917 -26.498 -281.457 -26.439 -282.99 -26.407 C -284.517 -26.374 -285.897 -26.24 -287.13 -26.005 C -288.357 -25.77 -289.593 -25.587 -290.84 -25.456 C -292.087 -25.319 -293.257 -25.119 -294.35 -24.858 C -295.443 -24.59 -296.597 -24.388 -297.81 -24.25 C -299.017 -24.107 -300.277 -23.927 -301.59 -23.711 C -302.903 -23.496 -304.203 -23.323 -305.49 -23.192 C -306.77 -23.068 -308.013 -22.973 -309.22 -22.908 C -310.42 -22.836 -311.553 -22.686 -312.62 -22.457 C -313.68 -22.228 -314.813 -22.052 -316.02 -21.928 C -317.227 -21.81 -318.417 -21.722 -319.59 -21.663 C -320.757 -21.611 -321.86 -21.474 -322.9 -21.251 C -323.94 -21.036 -325.06 -20.869 -326.26 -20.752 C -327.467 -20.64 -328.47 -20.454 -329.27 -20.193 C -330.07 -19.938 -331.163 -19.762 -332.55 -19.664 C -333.93 -19.559 -335.177 -19.396 -336.29 -19.174 C -337.403 -18.945 -338.577 -18.769 -339.81 -18.644 C -341.043 -18.527 -342.193 -18.347 -343.26 -18.105 C -344.327 -17.87 -345.47 -17.69 -346.69 -17.566 C -347.91 -17.442 -349.05 -17.262 -350.11 -17.027 C -351.17 -16.785 -352.253 -16.514 -353.36 -16.214 C -354.467 -15.913 -355.637 -15.688 -356.87 -15.538 C -358.103 -15.381 -359.123 -15.165 -359.93 -14.891 C -360.737 -14.623 -361.72 -14.417 -362.88 -14.273 C -364.04 -14.123 -365.127 -13.93 -366.14 -13.695 C -367.153 -13.46 -368.147 -13.27 -369.12 -13.127 C -370.093 -12.976 -371.057 -12.783 -372.01 -12.548 C -372.963 -12.313 -373.917 -12.12 -374.87 -11.97 C -375.83 -11.826 -376.643 -11.63 -377.31 -11.382 C -377.983 -11.134 -378.77 -10.931 -379.67 -10.774 C -380.57 -10.611 -381.433 -10.493 -382.26 -10.422 C -383.08 -10.35 -384.223 -10.141 -385.69 -9.794 C -387.157 -9.441 -388.64 -9.079 -390.14 -8.706 C -391.647 -8.34 -393.463 -7.935 -395.59 -7.491 C -397.717 -7.047 -399.26 -6.674 -400.22 -6.374 C -401.187 -6.067 -402.083 -5.743 -402.91 -5.404 C -403.737 -5.064 -404.74 -4.531 -405.92 -3.806 C -407.1 -3.087 -407.99 -2.486 -408.59 -2.003 C -409.19 -1.519 -410.11 -0.823 -411.35 0.085 C -412.59 1 -413.573 1.911 -414.3 2.819 C -415.027 3.728 -415.753 4.691 -416.48 5.711 C -417.2 6.736 -417.7 7.622 -417.98 8.367 C -418.26 9.111 -418.603 9.928 -419.01 10.817 C -419.423 11.699 -419.823 12.535 -420.21 13.326 C -420.603 14.116 -421.003 15.279 -421.41 16.815 C -421.81 18.35 -422.197 19.556 -422.57 20.431 C -422.937 21.307 -423.17 22.124 -423.27 22.882 C -423.377 23.639 -423.59 24.571 -423.91 25.675 C -424.237 26.779 -424.447 27.704 -424.54 28.448 C -424.627 29.193 -424.683 29.922 -424.71 30.634 C -424.743 31.353 -424.89 32.176 -425.15 33.104 C -425.417 34.038 -425.587 34.884 -425.66 35.642 C -425.733 36.4 -425.8 37.256 -425.86 38.21 C -425.92 39.164 -425.99 40.252 -426.07 41.474 C -426.157 42.695 -426.243 43.976 -426.33 45.316 C -426.417 46.655 -426.497 48.021 -426.57 49.412 C -426.643 50.797 -426.707 52.192 -426.76 53.597 C -426.813 55.009 -426.753 56.384 -426.58 57.723 C -426.407 59.063 -426.287 61.085 -426.22 63.79 C -426.147 66.502 -425.993 68.805 -425.76 70.7 C -425.527 72.601 -425.253 75.407 -424.94 79.118 C -424.627 82.83 -424.403 85.989 -424.27 88.596 C -424.143 91.203 -424.053 94.189 -424 97.554 C -423.953 100.925 -424.027 103.957 -424.22 106.649 C -424.42 109.334 -424.563 111.745 -424.65 113.882 C -424.737 116.018 -424.8 118.867 -424.84 122.428 C -424.873 125.989 -425.01 129.158 -425.25 131.935 C -425.483 134.712 -425.65 137.185 -425.75 139.354 C -425.85 141.53 -425.923 143.689 -425.97 145.832 C -426.01 147.982 -426.04 150.125 -426.06 152.262 C -426.08 154.405 -426.203 156.466 -426.43 158.446 C -426.657 160.426 -426.817 162.425 -426.91 164.444 C -427.003 166.463 -427.183 168.538 -427.45 170.668 C -427.71 172.798 -428.003 176.035 -428.33 180.38 C -428.657 184.732 -429 188.358 -429.36 191.259 C -429.72 194.16 -429.973 197.329 -430.12 200.766 C -430.273 204.209 -430.273 207.672 -430.12 211.155 C -429.967 214.637 -429.857 217.643 -429.79 220.171 C -429.723 222.7 -429.57 224.885 -429.33 226.728 C -429.083 228.577 -428.907 230.429 -428.8 232.285 C -428.693 234.141 -428.51 235.843 -428.25 237.391 C -427.997 238.94 -427.81 240.586 -427.69 242.331 C -427.577 244.069 -427.39 245.686 -427.13 247.182 C -426.87 248.678 -426.68 250.185 -426.56 251.7 C -426.447 253.21 -426.347 254.592 -426.26 255.846 C -426.18 257.101 -426.027 258.371 -425.8 259.659 C -425.567 260.939 -425.4 262.507 -425.3 264.363 C -425.207 266.212 -425.14 267.934 -425.1 269.528 C -425.06 271.129 -425.033 272.677 -425.02 274.174 C -425.007 275.67 -424.997 277.143 -424.99 278.594 C -424.99 280.051 -424.867 281.354 -424.62 282.504 C -424.38 283.661 -424.187 284.827 -424.04 286.003 C -423.9 287.179 -423.79 288.326 -423.71 289.443 C -423.63 290.56 -423.553 291.56 -423.48 292.442 C -423.407 293.324 -423.247 294.197 -423 295.059 C -422.76 295.922 -422.613 297.643 -422.56 300.224 C -422.507 302.798 -422.48 305.023 -422.48 306.898 C -422.48 308.78 -422.487 310.427 -422.5 311.838 C -422.513 313.249 -422.527 314.664 -422.54 316.082 C -422.553 317.5 -422.443 318.774 -422.21 319.904 C -421.977 321.034 -421.793 322.188 -421.66 323.364 C -421.527 324.54 -421.453 326.304 -421.44 328.656 C -421.433 331.015 -421.323 333.488 -421.11 336.075 C -420.897 338.663 -420.75 341.244 -420.67 343.818 C -420.583 346.386 -420.633 349.052 -420.82 351.815 C -421.007 354.586 -421.143 356.951 -421.23 358.911 C -421.31 360.871 -421.37 362.675 -421.41 364.321 C -421.443 365.974 -421.46 367.457 -421.46 368.771 C -421.467 370.084 -421.453 371.325 -421.42 372.495 C -421.387 373.665 -421.35 374.805 -421.31 375.916 C -421.277 377.033 -421.273 378.542 -421.3 380.443 C -421.333 382.345 -421.36 384.109 -421.38 385.736 C -421.4 387.363 -421.407 388.83 -421.4 390.136 C -421.4 391.443 -421.407 392.783 -421.42 394.155 C -421.433 395.527 -421.423 396.811 -421.39 398.006 C -421.363 399.209 -421.33 400.368 -421.29 401.486 C -421.257 402.61 -421.123 403.662 -420.89 404.642 C -420.65 405.628 -420.467 406.687 -420.34 407.817 C -420.207 408.954 -420.037 410.349 -419.83 412.002 C -419.623 413.662 -419.48 415.592 -419.4 417.794 C -419.32 419.996 -419.27 421.865 -419.25 423.4 C -419.223 424.936 -419.093 426.298 -418.86 427.487 C -418.62 428.676 -418.43 429.869 -418.29 431.065 C -418.157 432.26 -418.05 433.42 -417.97 434.544 C -417.897 435.668 -417.733 436.72 -417.48 437.7 C -417.233 438.686 -417.03 439.64 -416.87 440.561 C -416.71 441.476 -416.593 442.446 -416.52 443.472 C -416.447 444.505 -416.393 445.544 -416.36 446.589 C -416.327 447.634 -416.233 448.85 -416.08 450.235 C -415.933 451.613 -415.813 452.943 -415.72 454.224 C -415.633 455.504 -415.563 456.726 -415.51 457.889 C -415.457 459.052 -415.4 460.085 -415.34 460.986 C -415.28 461.888 -415.233 462.839 -415.2 463.838 C -415.173 464.838 -415.14 465.756 -415.1 466.592 C -415.06 467.422 -415.02 468.219 -414.98 468.984 C -414.94 469.748 -414.917 470.601 -414.91 471.542 C -414.897 472.476 -414.877 473.348 -414.85 474.159 C -414.823 474.969 -414.857 476.158 -414.95 477.726 C -415.043 479.294 -415.127 480.823 -415.2 482.313 C -415.273 483.796 -415.317 485.162 -415.33 486.41 C -415.35 487.651 -415.33 488.638 -415.27 489.369 C -415.217 490.108 -415.167 490.836 -415.12 491.555 C -415.067 492.274 -415.007 493.306 -414.94 494.652 C -414.873 495.991 -414.837 497.145 -414.83 498.112 C -414.83 499.079 -414.8 500.206 -414.74 501.493 C -414.68 502.78 -414.637 503.77 -414.61 504.463 C -414.59 505.155 -414.583 506.266 -414.59 507.795 C -414.59 509.324 -414.587 510.513 -414.58 511.362 C -414.58 512.205 -414.53 513.371 -414.43 514.861 C -414.33 516.351 -414.24 517.651 -414.16 518.762 C -414.08 519.879 -413.823 521.088 -413.39 522.388 C -412.963 523.695 -412.64 524.878 -412.42 525.936 C -412.207 527.001 -412.043 528.125 -411.93 529.308 C -411.817 530.49 -411.74 531.64 -411.7 532.757 C -411.66 533.881 -411.503 535.012 -411.23 536.148 C -410.957 537.285 -410.703 538.507 -410.47 539.814 C -410.23 541.121 -410.043 542.375 -409.91 543.577 C -409.777 544.78 -409.463 546.113 -408.97 547.576 C -408.477 549.04 -408.02 550.186 -407.6 551.016 C -407.18 551.846 -406.717 552.513 -406.21 553.016 C -405.703 553.512 -405.147 553.973 -404.54 554.398 C -403.94 554.829 -403.35 555.267 -402.77 555.711 C -402.19 556.155 -401.327 556.73 -400.18 557.436 C -399.033 558.148 -398.113 558.808 -397.42 559.416 C -396.727 560.023 -395.823 560.641 -394.71 561.268 C -393.597 561.889 -392.21 562.692 -390.55 563.679 C -388.89 564.665 -387.42 565.466 -386.14 566.08 C -384.86 566.701 -383.623 567.243 -382.43 567.707 C -381.237 568.171 -380.02 568.73 -378.78 569.383 C -377.547 570.03 -376.457 570.566 -375.51 570.99 C -374.57 571.415 -373.597 571.81 -372.59 572.176 C -371.583 572.536 -370.623 572.892 -369.71 573.244 C -368.79 573.591 -367.54 573.937 -365.96 574.283 C -364.387 574.63 -362.737 574.986 -361.01 575.352 C -359.283 575.718 -357.687 576.106 -356.22 576.518 C -354.747 576.923 -353.457 577.299 -352.35 577.645 C -351.243 577.985 -350.197 578.207 -349.21 578.311 C -348.223 578.423 -347.193 578.501 -346.12 578.547 C -345.04 578.592 -343.98 578.726 -342.94 578.948 C -341.893 579.164 -340.9 579.305 -339.96 579.37 C -339.02 579.442 -338.047 579.599 -337.04 579.84 C -336.027 580.082 -334.28 580.49 -331.8 581.065 C -329.313 581.64 -327.227 582.059 -325.54 582.32 C -323.86 582.588 -322.303 582.895 -320.87 583.241 C -319.43 583.588 -318.117 583.816 -316.93 583.927 C -315.743 584.038 -314.527 584.221 -313.28 584.476 C -312.027 584.731 -310.857 584.898 -309.77 584.976 C -308.677 585.061 -307.573 585.116 -306.46 585.143 C -305.347 585.169 -304.227 585.185 -303.1 585.192 C -301.973 585.192 -300.59 585.326 -298.95 585.593 C -297.303 585.861 -295.52 586.057 -293.6 586.181 C -291.673 586.306 -289.97 586.4 -288.49 586.466 C -287.003 586.525 -285.62 586.557 -284.34 586.564 C -283.06 586.577 -281.99 586.462 -281.13 586.221 C -280.263 585.979 -279.377 585.783 -278.47 585.633 C -277.563 585.489 -276.583 585.384 -275.53 585.319 C -274.47 585.247 -273.5 585.185 -272.62 585.133 C -271.74 585.074 -270.897 585.025 -270.09 584.986 C -269.277 584.94 -267.717 584.953 -265.41 585.025 C -263.097 585.103 -261.123 585.172 -259.49 585.231 C -257.857 585.283 -256.363 585.322 -255.01 585.348 C -253.663 585.375 -252.423 585.476 -251.29 585.652 C -250.163 585.835 -249.093 585.953 -248.08 586.005 C -247.067 586.057 -246.02 586.097 -244.94 586.123 C -243.853 586.142 -242.86 586.142 -241.96 586.123 C -241.053 586.097 -240.017 586.191 -238.85 586.407 C -237.683 586.623 -236.593 586.766 -235.58 586.838 C -234.567 586.917 -233.623 586.959 -232.75 586.966 C -231.877 586.972 -230.93 586.982 -229.91 586.995 C -228.89 587.001 -227.293 587.047 -225.12 587.132 C -222.947 587.217 -221.067 587.289 -219.48 587.348 C -217.9 587.413 -216.557 587.436 -215.45 587.416 C -214.343 587.39 -213.227 587.371 -212.1 587.358 C -210.973 587.345 -209.847 587.331 -208.72 587.318 C -207.587 587.312 -206.56 587.289 -205.64 587.25 C -204.727 587.217 -203.747 587.191 -202.7 587.171 C -201.653 587.158 -200.583 587.152 -199.49 587.152 C -198.39 587.145 -197.28 587.145 -196.16 587.152 C -195.04 587.152 -194.023 587.139 -193.11 587.113 C -192.197 587.08 -191.22 587.064 -190.18 587.064 C -189.14 587.057 -188.07 587.054 -186.97 587.054 C -185.877 587.06 -184.55 587.103 -182.99 587.181 C -181.437 587.253 -179.673 587.318 -177.7 587.377 C -175.733 587.436 -174.007 587.485 -172.52 587.524 C -171.027 587.563 -169.68 587.488 -168.48 587.299 C -167.28 587.103 -165.943 586.972 -164.47 586.907 C -162.99 586.848 -161.613 586.792 -160.34 586.74 C -159.067 586.688 -157.503 586.665 -155.65 586.672 C -153.797 586.685 -152.073 586.596 -150.48 586.407 C -148.88 586.217 -146.943 586.083 -144.67 586.005 C -142.397 585.92 -139.91 585.865 -137.21 585.838 C -134.503 585.812 -132.25 585.793 -130.45 585.78 C -128.65 585.773 -126.713 585.77 -124.64 585.77 C -122.56 585.763 -120.643 585.763 -118.89 585.77 C -117.137 585.77 -114.907 585.77 -112.2 585.77 C -109.493 585.77 -107.237 585.77 -105.43 585.77 C -103.63 585.776 -102.02 585.78 -100.6 585.78 C -99.173 585.78 -97.833 585.763 -96.58 585.731 C -95.32 585.698 -94.203 585.649 -93.23 585.584 C -92.263 585.518 -91.247 585.463 -90.18 585.417 C -89.113 585.378 -88.027 585.345 -86.92 585.319 C -85.813 585.293 -84.697 585.273 -83.57 585.26 C -82.45 585.241 -81.38 585.13 -80.36 584.927 C -79.34 584.724 -78.117 584.594 -76.69 584.535 C -75.263 584.476 -73.423 584.247 -71.17 583.849 C -68.917 583.457 -66.947 583.179 -65.26 583.016 C -63.58 582.852 -62.21 582.621 -61.15 582.32 C -60.09 582.019 -59.073 581.774 -58.1 581.585 C -57.127 581.395 -56.21 581.248 -55.35 581.144 C -54.483 581.033 -53.357 580.899 -51.97 580.742 C -50.577 580.579 -49.223 580.451 -47.91 580.36 C -46.597 580.262 -45.507 580.082 -44.64 579.821 C -43.773 579.553 -42.763 579.347 -41.61 579.203 C -40.45 579.066 -39.41 578.955 -38.49 578.87 C -37.57 578.779 -36.29 578.658 -34.65 578.507 C -33.01 578.357 -31.6 578.23 -30.42 578.125 C -29.233 578.014 -28.167 577.919 -27.22 577.841 C -26.273 577.756 -25.247 577.655 -24.14 577.537 C -23.027 577.42 -22.04 577.348 -21.18 577.322 C -20.313 577.295 -19.137 577.263 -17.65 577.224 C -16.163 577.178 -14.9 577.161 -13.86 577.175 C -12.82 577.188 -11.723 577.165 -10.57 577.106 C -9.41 577.047 -8.267 576.998 -7.14 576.959 C -6.013 576.913 -4.96 576.734 -3.98 576.42 C -2.993 576.113 -2.123 575.927 -1.37 575.861 C -0.61 575.802 0.49 575.6 1.93 575.254 C 3.377 574.907 4.64 574.652 5.72 574.489 C 6.8 574.332 7.75 574.123 8.57 573.862 C 9.39 573.607 10.223 573.182 11.07 572.588 C 11.917 572 12.813 571.555 13.76 571.255 C 14.707 570.954 15.453 570.579 16 570.128 C 16.547 569.683 17.183 569.252 17.91 568.834 C 18.643 568.422 19.377 568.034 20.11 567.668 C 20.85 567.308 21.593 566.952 22.34 566.6 C 23.087 566.253 24.077 565.613 25.31 564.679 C 26.543 563.751 27.45 563.025 28.03 562.503 C 28.603 561.98 29.243 561.042 29.95 559.69 C 30.65 558.331 31.217 557.129 31.65 556.083 C 32.083 555.031 32.377 554.045 32.53 553.123 C 32.683 552.202 32.923 551.173 33.25 550.036 C 33.583 548.893 33.807 547.841 33.92 546.88 C 34.033 545.92 34.267 544.492 34.62 542.597 C 34.98 540.703 35.357 538.543 35.75 536.119 C 36.143 533.695 36.543 531.15 36.95 528.484 C 37.357 525.818 37.65 523.525 37.83 521.604 C 38.017 519.683 38.153 518.011 38.24 516.586 C 38.333 515.162 38.383 513.839 38.39 512.617 C 38.397 511.402 38.41 510.127 38.43 508.795 C 38.457 507.462 38.483 506.001 38.51 504.414 C 38.537 502.826 38.557 501.284 38.57 499.788 C 38.59 498.291 38.603 496.41 38.61 494.142 C 38.623 491.869 38.633 489.944 38.64 488.37 C 38.653 486.788 38.553 484.969 38.34 482.911 C 38.133 480.852 37.77 478.37 37.25 475.462 C 36.73 472.554 36.357 469.947 36.13 467.641 C 35.903 465.335 35.527 462.587 35 459.399 C 34.473 456.21 33.987 452.799 33.54 449.167 C 33.1 445.534 32.677 441.924 32.27 438.337 C 31.863 434.75 31.357 431.185 30.75 427.644 C 30.143 424.096 29.603 421.058 29.13 418.529 C 28.657 415.994 28.207 412.531 27.78 408.14 C 27.353 403.756 26.943 400.137 26.55 397.281 C 26.157 394.426 25.873 391.861 25.7 389.588 C 25.533 387.32 25.413 385.089 25.34 382.894 C 25.267 380.692 25.213 378.101 25.18 375.122 C 25.153 372.136 25.133 369.398 25.12 366.909 C 25.107 364.413 25.097 362.126 25.09 360.048 C 25.083 357.964 25.08 355.968 25.08 354.06 C 25.08 352.152 25.187 349.653 25.4 346.562 C 25.62 343.472 25.777 340.264 25.87 336.938 C 25.957 333.606 26.02 330.211 26.06 326.755 C 26.1 323.292 26.13 320.417 26.15 318.13 C 26.163 315.837 26.173 313.694 26.18 311.701 C 26.187 309.701 26.193 307.767 26.2 305.899 C 26.2 304.03 26.2 302.187 26.2 300.371 C 26.2 298.555 26.203 296.748 26.21 294.951 C 26.21 293.154 26.21 290.956 26.21 288.355 C 26.21 285.748 26.1 283.403 25.88 281.318 C 25.667 279.228 25.513 277.313 25.42 275.575 C 25.327 273.831 25.15 270.75 24.89 266.333 C 24.637 261.923 24.453 258.264 24.34 255.356 C 24.233 252.449 24.157 249.864 24.11 247.604 C 24.063 245.343 24.14 243.197 24.34 241.165 C 24.54 239.133 24.68 237.094 24.76 235.049 C 24.84 233.004 25.12 230.394 25.6 227.218 C 26.073 224.049 26.52 221.181 26.94 218.613 C 27.36 216.052 27.77 213.615 28.17 211.302 C 28.563 208.982 28.953 206.816 29.34 204.804 C 29.727 202.785 30.22 200.223 30.82 197.12 C 31.42 194.016 31.96 191.295 32.44 188.956 C 32.913 186.61 33.463 183.111 34.09 178.459 C 34.723 173.807 35.287 170.073 35.78 167.257 C 36.273 164.434 36.62 161.932 36.82 159.749 C 37.027 157.567 37.283 155.182 37.59 152.595 C 37.897 150.007 38.113 147.766 38.24 145.872 C 38.367 143.977 38.46 141.915 38.52 139.687 C 38.573 137.466 38.723 135.444 38.97 133.621 C 39.21 131.804 39.38 130.024 39.48 128.279 C 39.58 126.535 39.873 124.14 40.36 121.095 C 40.84 118.05 41.183 115.594 41.39 113.725 C 41.59 111.856 41.73 109.919 41.81 107.913 C 41.897 105.907 42.07 104.14 42.33 102.611 C 42.59 101.082 42.773 99.311 42.88 97.299 C 42.98 95.293 43.167 93.519 43.44 91.977 C 43.707 90.435 43.88 89.056 43.96 87.841 C 44.033 86.632 44.06 85.564 44.04 84.636 C 44.013 83.715 44.12 82.608 44.36 81.314 C 44.6 80.027 44.67 78.164 44.57 75.727 C 44.477 73.284 44.417 70.588 44.39 67.642 C 44.357 64.695 44.45 62.166 44.67 60.056 C 44.883 57.939 45.007 56.341 45.04 55.263 C 45.073 54.185 45.077 53.222 45.05 52.372 C 45.017 51.516 44.96 50.383 44.88 48.971 C 44.793 47.56 44.71 46.247 44.63 45.031 C 44.543 43.816 44.487 42.457 44.46 40.954 C 44.44 39.451 44.477 37.968 44.57 36.505 C 44.67 35.048 44.85 33.646 45.11 32.3 C 45.377 30.961 45.557 29.752 45.65 28.674 C 45.737 27.596 45.76 26.478 45.72 25.322 C 45.68 24.165 45.637 23.225 45.59 22.499 C 45.537 21.781 45.327 21 44.96 20.157 C 44.593 19.321 44.17 18.517 43.69 17.746 C 43.21 16.968 42.713 16.037 42.2 14.953 C 41.693 13.862 41.007 12.885 40.14 12.022 C 39.267 11.16 38.46 10.232 37.72 9.239 C 36.987 8.252 36.367 7.507 35.86 7.004 C 35.353 6.501 34.83 5.978 34.29 5.436 C 33.75 4.887 33.01 4.169 32.07 3.28 C 31.123 2.398 30.297 1.663 29.59 1.075 C 28.877 0.493 28.057 -0.036 27.13 -0.513 C 26.203 -0.977 25.06 -1.529 23.7 -2.169 C 22.34 -2.816 21.163 -3.303 20.17 -3.63 C 19.183 -3.956 18.103 -4.316 16.93 -4.708 C 15.75 -5.093 14.787 -5.338 14.04 -5.443 C 13.293 -5.554 12.467 -5.753 11.56 -6.041 C 10.653 -6.322 9.8 -6.504 9 -6.589 C 8.2 -6.674 7.397 -6.733 6.59 -6.766 C 5.783 -6.798 4.987 -6.821 4.2 -6.834 C 3.407 -6.847 2.593 -6.975 1.76 -7.217 C 0.927 -7.458 -0.203 -7.615 -1.63 -7.687 C -3.063 -7.759 -4.267 -7.811 -5.24 -7.844 C -6.207 -7.883 -7.117 -7.903 -7.97 -7.903 C -8.823 -7.909 -9.883 -7.893 -11.15 -7.854 C -12.41 -7.821 -13.513 -7.814 -14.46 -7.834 C -15.4 -7.847 -16.4 -7.87 -17.46 -7.903 C -18.513 -7.929 -19.487 -7.945 -20.38 -7.952 C -21.267 -7.952 -22.223 -8.063 -23.25 -8.285 C -24.27 -8.507 -25.42 -8.657 -26.7 -8.736 C -27.973 -8.821 -29.24 -8.857 -30.5 -8.844 C -31.76 -8.831 -32.753 -8.821 -33.48 -8.814 C -34.213 -8.808 -34.69 -8.821 -34.91 -8.853 C -35.137 -8.88 -35.357 -8.935 -35.57 -9.02 C -35.783 -9.098 -35.98 -9.203 -36.16 -9.334 C -36.347 -9.458 -36.517 -9.605 -36.67 -9.775 C -36.817 -9.945 -36.94 -10.127 -37.04 -10.323 C -37.147 -10.52 -37.227 -10.725 -37.28 -10.941 C -37.333 -11.163 -37.357 -11.385 -37.35 -11.607 C -37.35 -11.83 -37.32 -12.048 -37.26 -12.264 C -37.207 -12.48 -37.127 -12.685 -37.02 -12.882 C -36.913 -13.078 -36.783 -13.257 -36.63 -13.421 C -36.477 -13.584 -36.307 -13.728 -36.12 -13.852 C -35.933 -13.976 -35.733 -14.077 -35.52 -14.156 C -35.307 -14.234 -35.087 -14.286 -34.86 -14.312 C -34.633 -14.332 -33.83 -12.728 -32.45 -9.5 C -31.077 -6.273 -30.38 -4.531 -30.36 -4.276 C -30.347 -4.022 -30.37 -3.77 -30.43 -3.522 C -30.497 -3.273 -30.603 -3.042 -30.75 -2.826 C -30.897 -2.61 -31.07 -2.424 -31.27 -2.267 C -31.477 -2.104 -31.703 -1.98 -31.95 -1.895 C -32.197 -1.81 -32.453 -1.767 -32.72 -1.767 C -32.98 -1.761 -33.233 -1.797 -33.48 -1.875 C -33.733 -1.954 -33.967 -2.068 -34.18 -2.218 C -34.387 -2.375 -34.567 -2.558 -34.72 -2.767 C -34.867 -2.976 -34.977 -3.205 -35.05 -3.453 C -35.123 -3.701 -35.157 -3.953 -35.15 -4.208 C -35.137 -4.463 -35.083 -4.711 -34.99 -4.953 C -34.897 -5.188 -34.767 -5.407 -34.6 -5.609 C -34.433 -5.805 -34.24 -5.972 -34.02 -6.109 C -33.8 -6.246 -33.56 -6.344 -33.3 -6.403 C -33.047 -6.462 -32.79 -6.478 -32.53 -6.452 C -32.27 -6.426 -32.02 -6.361 -31.78 -6.256 C -31.54 -6.152 -31.323 -6.014 -31.13 -5.845 C -30.937 -5.668 -30.777 -5.469 -30.65 -5.247 C -30.523 -5.018 -30.437 -4.78 -30.39 -4.531 C -30.343 -4.276 -30.34 -4.022 -30.38 -3.767 C -30.42 -3.512 -30.5 -3.27 -30.62 -3.042 C -30.74 -2.813 -30.893 -2.61 -31.08 -2.434 C -31.267 -2.251 -31.48 -2.104 -31.72 -1.993 C -31.953 -1.882 -32.2 -1.81 -32.46 -1.777 C -32.72 -1.751 -32.977 -1.764 -33.23 -1.816 C -33.49 -1.862 -33.733 -1.95 -33.96 -2.081 C -34.187 -2.212 -34.387 -2.375 -34.56 -2.571 C -34.733 -2.761 -34.87 -2.973 -34.97 -3.208 C -35.07 -3.45 -35.12 -3.571 -35.12 -3.571 C -35.12 -3.571 -35.03 -4.443 -34.85 -6.188 C -34.67 -7.932 -34.69 -8.821 -34.91 -8.853 C -35.137 -8.88 -35.357 -8.935 -35.57 -9.02 C -35.783 -9.098 -35.98 -9.203 -36.16 -9.334 C -36.347 -9.458 -36.517 -9.605 -36.67 -9.775 C -36.817 -9.945 -36.94 -10.127 -37.04 -10.323 C -37.147 -10.52 -37.227 -10.725 -37.28 -10.941 C -37.333 -11.163 -37.357 -11.385 -37.35 -11.607 C -37.35 -11.83 -37.32 -12.048 -37.26 -12.264 C -37.207 -12.48 -37.127 -12.685 -37.02 -12.882 C -36.913 -13.078 -36.783 -13.257 -36.63 -13.421 C -36.477 -13.584 -36.307 -13.728 -36.12 -13.852 C -35.933 -13.976 -35.733 -14.077 -35.52 -14.156 C -35.307 -14.234 -35.087 -14.286 -34.86 -14.312 C -34.633 -14.332 -34.157 -14.339 -33.43 -14.332 C -32.697 -14.319 -31.673 -14.283 -30.36 -14.224 C -29.04 -14.172 -27.883 -14.126 -26.89 -14.087 C -25.897 -14.041 -24.777 -13.862 -23.53 -13.548 C -22.29 -13.241 -21.23 -13.087 -20.35 -13.087 C -19.477 -13.087 -18.51 -13.1 -17.45 -13.127 C -16.397 -13.159 -15.397 -13.182 -14.45 -13.195 C -13.503 -13.215 -12.393 -13.202 -11.12 -13.156 C -9.847 -13.11 -8.777 -13.084 -7.91 -13.078 C -7.043 -13.064 -6.093 -13.061 -5.06 -13.068 C -4.033 -13.068 -3.087 -13.045 -2.22 -12.999 C -1.36 -12.953 -0.233 -12.767 1.16 -12.44 C 2.553 -12.12 3.653 -11.944 4.46 -11.911 C 5.267 -11.885 6.123 -11.843 7.03 -11.784 C 7.93 -11.718 9.283 -11.496 11.09 -11.117 C 12.897 -10.738 14.223 -10.471 15.07 -10.314 C 15.91 -10.15 17.377 -9.82 19.47 -9.324 C 21.563 -8.827 23.153 -8.305 24.24 -7.756 C 25.333 -7.207 26.54 -6.593 27.86 -5.913 C 29.18 -5.24 30.177 -4.717 30.85 -4.345 C 31.53 -3.973 32.21 -3.512 32.89 -2.963 C 33.57 -2.408 34.557 -1.722 35.85 -0.905 C 37.15 -0.088 38.313 0.833 39.34 1.859 C 40.373 2.885 41.117 3.79 41.57 4.574 C 42.023 5.351 42.763 6.279 43.79 7.357 C 44.823 8.435 45.563 9.294 46.01 9.935 C 46.457 10.582 46.84 11.353 47.16 12.248 C 47.487 13.136 47.847 13.907 48.24 14.561 C 48.64 15.214 48.97 16.106 49.23 17.236 C 49.49 18.373 49.75 19.526 50.01 20.696 C 50.27 21.866 50.343 22.921 50.23 23.862 C 50.123 24.796 50.023 25.616 49.93 26.322 C 49.843 27.021 49.753 27.968 49.66 29.164 C 49.56 30.366 49.423 31.526 49.25 32.643 C 49.083 33.767 49.047 35.057 49.14 36.514 C 49.24 37.971 49.277 39.451 49.25 40.954 C 49.223 42.457 49.163 43.823 49.07 45.051 C 48.977 46.273 48.867 47.609 48.74 49.059 C 48.62 50.51 48.51 51.676 48.41 52.558 C 48.31 53.44 48.19 54.427 48.05 55.518 C 47.917 56.603 47.76 58.151 47.58 60.164 C 47.407 62.176 47.353 64.639 47.42 67.554 C 47.493 70.468 47.597 73.264 47.73 75.943 C 47.87 78.628 47.82 80.546 47.58 81.696 C 47.347 82.839 47.17 83.888 47.05 84.842 C 46.93 85.79 46.797 86.904 46.65 88.184 C 46.503 89.465 46.3 90.824 46.04 92.261 C 45.78 93.699 45.593 95.473 45.48 97.583 C 45.367 99.694 45.187 101.458 44.94 102.876 C 44.693 104.3 44.523 106.041 44.43 108.099 C 44.343 110.158 44.197 112.144 43.99 114.058 C 43.783 115.966 43.443 118.403 42.97 121.37 C 42.49 124.329 42.2 126.714 42.1 128.524 C 41.993 130.334 41.82 132.101 41.58 133.826 C 41.34 135.551 41.193 137.544 41.14 139.805 C 41.08 142.072 40.987 144.173 40.86 146.107 C 40.727 148.041 40.507 150.292 40.2 152.86 C 39.893 155.427 39.633 157.835 39.42 160.083 C 39.213 162.33 38.867 164.849 38.38 167.639 C 37.893 170.429 37.327 174.176 36.68 178.881 C 36.04 183.585 35.483 187.107 35.01 189.446 C 34.543 191.778 34.01 194.497 33.41 197.6 C 32.803 200.704 32.31 203.255 31.93 205.254 C 31.543 207.247 31.153 209.4 30.76 211.713 C 30.36 214.026 29.953 216.457 29.54 219.005 C 29.12 221.56 28.677 224.379 28.21 227.463 C 27.743 230.547 27.467 233.134 27.38 235.225 C 27.293 237.323 27.153 239.335 26.96 241.263 C 26.76 243.197 26.683 245.287 26.73 247.535 C 26.777 249.783 26.853 252.351 26.96 255.238 C 27.073 258.126 27.257 261.779 27.51 266.196 C 27.77 270.613 27.947 273.674 28.04 275.379 C 28.127 277.078 28.28 279.015 28.5 281.191 C 28.72 283.36 28.83 285.748 28.83 288.355 C 28.83 290.956 28.83 293.154 28.83 294.951 C 28.83 296.748 28.83 298.555 28.83 300.371 C 28.83 302.187 28.827 304.033 28.82 305.909 C 28.82 307.777 28.817 309.711 28.81 311.711 C 28.803 313.71 28.79 315.856 28.77 318.15 C 28.757 320.443 28.73 323.328 28.69 326.804 C 28.65 330.28 28.583 333.697 28.49 337.055 C 28.397 340.42 28.243 343.619 28.03 346.65 C 27.81 349.682 27.703 352.152 27.71 354.06 C 27.71 355.961 27.713 357.954 27.72 360.038 C 27.727 362.116 27.737 364.4 27.75 366.889 C 27.763 369.378 27.783 372.103 27.81 375.063 C 27.843 378.029 27.893 380.594 27.96 382.756 C 28.033 384.919 28.153 387.108 28.32 389.323 C 28.487 391.538 28.77 394.093 29.17 396.987 C 29.563 399.875 29.97 403.475 30.39 407.788 C 30.803 412.1 31.25 415.53 31.73 418.078 C 32.21 420.627 32.757 423.694 33.37 427.281 C 33.983 430.875 34.493 434.462 34.9 438.043 C 35.307 441.617 35.73 445.204 36.17 448.804 C 36.617 452.404 37.107 455.825 37.64 459.065 C 38.18 462.306 38.56 465.047 38.78 467.288 C 39.007 469.523 39.387 472.127 39.92 475.099 C 40.46 478.072 40.843 480.63 41.07 482.773 C 41.297 484.923 41.413 486.788 41.42 488.37 C 41.427 489.944 41.437 491.869 41.45 494.142 C 41.457 496.416 41.467 498.301 41.48 499.797 C 41.493 501.294 41.507 502.839 41.52 504.433 C 41.533 506.027 41.54 507.498 41.54 508.844 C 41.54 510.189 41.517 511.483 41.47 512.725 C 41.423 513.96 41.38 515.309 41.34 516.772 C 41.3 518.229 41.22 519.951 41.1 521.937 C 40.973 523.924 40.753 526.259 40.44 528.945 C 40.127 531.624 39.837 534.188 39.57 536.639 C 39.297 539.089 39.067 541.251 38.88 543.127 C 38.7 545.002 38.543 546.528 38.41 547.704 C 38.277 548.88 38.087 549.968 37.84 550.967 C 37.587 551.96 37.37 553.068 37.19 554.29 C 37.003 555.512 36.73 556.675 36.37 557.779 C 36.017 558.883 35.603 560.092 35.13 561.405 C 34.657 562.718 34.12 563.761 33.52 564.532 C 32.92 565.303 32.317 565.959 31.71 566.502 C 31.103 567.037 30.337 567.749 29.41 568.638 C 28.483 569.533 27.69 570.187 27.03 570.598 C 26.377 571.016 25.693 571.402 24.98 571.755 C 24.26 572.108 23.57 572.454 22.91 572.794 C 22.25 573.127 21.393 573.617 20.34 574.264 C 19.287 574.904 18.393 575.397 17.66 575.744 C 16.927 576.09 16.113 576.453 15.22 576.832 C 14.333 577.204 13.507 577.586 12.74 577.978 C 11.973 578.37 11.083 578.746 10.07 579.105 C 9.057 579.458 7.79 579.795 6.27 580.115 C 4.757 580.428 3.35 580.732 2.05 581.026 C 0.75 581.32 -0.35 581.493 -1.25 581.546 C -2.157 581.598 -3.07 581.742 -3.99 581.977 C -4.91 582.206 -5.947 582.3 -7.1 582.261 C -8.253 582.215 -9.41 582.163 -10.57 582.104 C -11.723 582.046 -12.82 582.023 -13.86 582.036 C -14.893 582.055 -16.153 582.046 -17.64 582.006 C -19.12 581.961 -20.283 581.931 -21.13 581.918 C -21.977 581.899 -22.937 581.853 -24.01 581.781 C -25.083 581.709 -26.07 581.673 -26.97 581.673 C -27.877 581.673 -28.89 581.716 -30.01 581.801 C -31.13 581.885 -32.557 582.075 -34.29 582.369 C -36.03 582.663 -37.33 582.81 -38.19 582.81 C -39.05 582.817 -39.967 582.852 -40.94 582.918 C -41.92 582.983 -42.95 583.13 -44.03 583.359 C -45.117 583.581 -46.267 583.741 -47.48 583.839 C -48.7 583.944 -50.057 584.14 -51.55 584.427 C -53.043 584.721 -54.183 584.865 -54.97 584.858 C -55.763 584.852 -56.59 584.878 -57.45 584.937 C -58.31 584.989 -59.343 585.149 -60.55 585.417 C -61.757 585.691 -63.16 585.933 -64.76 586.142 C -66.353 586.358 -68.343 586.714 -70.73 587.211 C -73.117 587.707 -74.947 588.014 -76.22 588.132 C -77.5 588.249 -78.763 588.41 -80.01 588.612 C -81.257 588.821 -82.443 588.916 -83.57 588.896 C -84.697 588.877 -85.813 588.854 -86.92 588.828 C -88.027 588.802 -89.113 588.769 -90.18 588.73 C -91.247 588.69 -92.263 588.638 -93.23 588.573 C -94.203 588.508 -95.32 588.459 -96.58 588.426 C -97.833 588.393 -99.17 588.377 -100.59 588.377 C -102.017 588.377 -103.63 588.38 -105.43 588.387 C -107.237 588.387 -109.493 588.39 -112.2 588.396 C -114.907 588.396 -117.137 588.4 -118.89 588.406 C -120.637 588.413 -122.547 588.423 -124.62 588.436 C -126.687 588.449 -128.62 588.468 -130.42 588.494 C -132.213 588.514 -134.45 588.55 -137.13 588.602 C -139.81 588.648 -142.24 588.72 -144.42 588.818 C -146.607 588.916 -148.557 589.083 -150.27 589.318 C -151.983 589.553 -153.757 589.69 -155.59 589.729 C -157.423 589.769 -158.96 589.801 -160.2 589.827 C -161.44 589.847 -162.743 589.912 -164.11 590.023 C -165.47 590.134 -166.837 590.298 -168.21 590.513 C -169.583 590.729 -171.017 590.856 -172.51 590.896 C -174.003 590.941 -175.733 590.99 -177.7 591.043 C -179.673 591.101 -181.437 591.17 -182.99 591.248 C -184.55 591.32 -185.877 591.36 -186.97 591.366 C -188.07 591.373 -189.14 591.373 -190.18 591.366 C -191.22 591.36 -192.197 591.343 -193.11 591.317 C -194.023 591.284 -195.04 591.268 -196.16 591.268 C -197.28 591.275 -198.39 591.275 -199.49 591.268 C -200.583 591.268 -201.653 591.262 -202.7 591.248 C -203.747 591.235 -204.727 591.209 -205.64 591.17 C -206.56 591.131 -207.587 591.108 -208.72 591.101 C -209.853 591.088 -210.98 591.075 -212.1 591.062 C -213.227 591.043 -214.347 591.023 -215.46 591.003 C -216.567 590.977 -217.91 590.994 -219.49 591.052 C -221.077 591.105 -222.967 591.167 -225.16 591.239 C -227.353 591.311 -228.98 591.333 -230.04 591.307 C -231.1 591.288 -232.093 591.242 -233.02 591.17 C -233.947 591.105 -235 591.02 -236.18 590.915 C -237.36 590.811 -238.407 590.654 -239.32 590.445 C -240.233 590.236 -241.15 590.105 -242.07 590.053 C -242.983 590.001 -244.013 589.948 -245.16 589.896 C -246.3 589.844 -247.45 589.759 -248.61 589.641 C -249.763 589.517 -250.783 589.341 -251.67 589.112 C -252.557 588.883 -253.673 588.782 -255.02 588.808 C -256.367 588.834 -257.857 588.877 -259.49 588.935 C -261.123 588.994 -263.087 589.063 -265.38 589.141 C -267.68 589.226 -269.23 589.252 -270.03 589.22 C -270.83 589.187 -271.657 589.158 -272.51 589.132 C -273.37 589.112 -274.29 589.102 -275.27 589.102 C -276.243 589.109 -277.133 589.122 -277.94 589.141 C -278.74 589.161 -279.69 589.249 -280.79 589.406 C -281.897 589.563 -283.1 589.628 -284.4 589.602 C -285.693 589.576 -287.093 589.556 -288.6 589.543 C -290.107 589.53 -291.877 589.494 -293.91 589.435 C -295.937 589.377 -297.707 589.269 -299.22 589.112 C -300.727 588.949 -302.057 588.851 -303.21 588.818 C -304.363 588.785 -305.53 588.736 -306.71 588.671 C -307.89 588.599 -309.09 588.494 -310.31 588.357 C -311.537 588.22 -312.707 588.021 -313.82 587.759 C -314.94 587.498 -316.153 587.295 -317.46 587.152 C -318.767 587.008 -320.093 586.812 -321.44 586.564 C -322.793 586.315 -324.367 586.106 -326.16 585.936 C -327.96 585.767 -330.17 585.456 -332.79 585.005 C -335.41 584.548 -337.097 584.195 -337.85 583.947 C -338.597 583.699 -339.54 583.509 -340.68 583.378 C -341.827 583.248 -342.79 583.062 -343.57 582.82 C -344.35 582.572 -345.327 582.408 -346.5 582.33 C -347.667 582.251 -348.857 582.117 -350.07 581.928 C -351.283 581.738 -352.383 581.467 -353.37 581.114 C -354.363 580.755 -355.57 580.438 -356.99 580.164 C -358.403 579.889 -360.107 579.618 -362.1 579.35 C -364.093 579.076 -365.427 578.798 -366.1 578.517 C -366.773 578.243 -367.577 577.985 -368.51 577.743 C -369.443 577.501 -370.333 577.181 -371.18 576.783 C -372.027 576.384 -373 575.966 -374.1 575.528 C -375.2 575.09 -376.217 574.623 -377.15 574.127 C -378.077 573.63 -379.1 573.107 -380.22 572.558 C -381.347 572.003 -382.547 571.506 -383.82 571.069 C -385.093 570.631 -386.453 570.138 -387.9 569.589 C -389.34 569.04 -390.903 568.37 -392.59 567.58 C -394.27 566.782 -395.92 566.047 -397.54 565.374 C -399.16 564.695 -400.473 563.927 -401.48 563.071 C -402.493 562.215 -403.623 561.336 -404.87 560.435 C -406.117 559.533 -407.173 558.756 -408.04 558.102 C -408.907 557.442 -409.81 556.42 -410.75 555.035 C -411.69 553.649 -412.357 552.294 -412.75 550.967 C -413.143 549.634 -413.513 548.511 -413.86 547.596 C -414.207 546.688 -414.547 545.547 -414.88 544.175 C -415.213 542.803 -415.4 541.653 -415.44 540.725 C -415.48 539.791 -415.61 538.543 -415.83 536.982 C -416.05 535.413 -416.187 534.113 -416.24 533.081 C -416.3 532.055 -416.387 531.046 -416.5 530.052 C -416.613 529.066 -416.843 527.72 -417.19 526.014 C -417.537 524.303 -417.847 523.015 -418.12 522.153 C -418.387 521.284 -418.57 520.323 -418.67 519.272 C -418.777 518.22 -418.997 516.851 -419.33 515.165 C -419.67 513.479 -419.837 512.212 -419.83 511.362 C -419.83 510.513 -419.83 509.324 -419.83 507.795 C -419.837 506.266 -419.827 505.155 -419.8 504.463 C -419.78 503.77 -419.74 502.78 -419.68 501.493 C -419.62 500.206 -419.587 499.079 -419.58 498.112 C -419.58 497.145 -419.547 495.991 -419.48 494.652 C -419.407 493.306 -419.347 492.274 -419.3 491.555 C -419.253 490.836 -419.203 490.108 -419.15 489.369 C -419.09 488.638 -419.07 487.651 -419.09 486.41 C -419.103 485.162 -419.147 483.796 -419.22 482.313 C -419.287 480.823 -419.367 479.294 -419.46 477.726 C -419.553 476.158 -419.59 474.969 -419.57 474.159 C -419.543 473.355 -419.527 472.483 -419.52 471.542 C -419.507 470.607 -419.483 469.758 -419.45 468.994 C -419.41 468.236 -419.373 467.442 -419.34 466.612 C -419.307 465.782 -419.283 464.874 -419.27 463.887 C -419.25 462.907 -419.227 461.973 -419.2 461.084 C -419.173 460.202 -419.177 459.203 -419.21 458.085 C -419.237 456.975 -419.303 455.825 -419.41 454.635 C -419.51 453.446 -419.71 452.081 -420.01 450.539 C -420.31 449.003 -420.46 447.726 -420.46 446.707 C -420.467 445.694 -420.477 444.717 -420.49 443.776 C -420.497 442.835 -420.523 441.956 -420.57 441.14 C -420.61 440.323 -420.743 439.323 -420.97 438.141 C -421.19 436.958 -421.307 435.828 -421.32 434.75 C -421.327 433.672 -421.36 432.577 -421.42 431.466 C -421.487 430.362 -421.64 429.144 -421.88 427.811 C -422.113 426.471 -422.267 425.044 -422.34 423.528 C -422.413 422.012 -422.517 420.209 -422.65 418.118 C -422.79 416.02 -423.013 414.116 -423.32 412.404 C -423.627 410.685 -423.81 409.317 -423.87 408.297 C -423.923 407.278 -424.05 406.171 -424.25 404.975 C -424.45 403.779 -424.533 402.619 -424.5 401.496 C -424.46 400.372 -424.427 399.209 -424.4 398.006 C -424.367 396.811 -424.357 395.527 -424.37 394.155 C -424.383 392.783 -424.39 391.443 -424.39 390.136 C -424.383 388.83 -424.39 387.363 -424.41 385.736 C -424.43 384.109 -424.453 382.342 -424.48 380.434 C -424.507 378.532 -424.5 377.023 -424.46 375.906 C -424.42 374.795 -424.377 373.652 -424.33 372.475 C -424.29 371.299 -424.257 370.051 -424.23 368.732 C -424.203 367.412 -424.177 365.919 -424.15 364.253 C -424.123 362.586 -424.077 360.76 -424.01 358.774 C -423.943 356.788 -423.83 354.458 -423.67 351.786 C -423.503 349.114 -423.477 346.516 -423.59 343.994 C -423.703 341.472 -423.89 338.885 -424.15 336.232 C -424.41 333.573 -424.573 331.1 -424.64 328.813 C -424.713 326.526 -424.777 324.84 -424.83 323.756 C -424.883 322.671 -425.013 321.479 -425.22 320.178 C -425.433 318.878 -425.553 317.522 -425.58 316.111 C -425.613 314.693 -425.653 313.285 -425.7 311.887 C -425.747 310.489 -425.81 308.862 -425.89 307.006 C -425.97 305.151 -426.08 303.047 -426.22 300.695 C -426.353 298.342 -426.527 296.614 -426.74 295.51 C -426.947 294.399 -427.03 293.409 -426.99 292.54 C -426.95 291.671 -426.93 290.701 -426.93 289.629 C -426.93 288.551 -426.953 287.463 -427 286.366 C -427.047 285.268 -427.167 284.066 -427.36 282.759 C -427.56 281.452 -427.667 280.074 -427.68 278.623 C -427.693 277.173 -427.71 275.706 -427.73 274.223 C -427.75 272.739 -427.787 271.214 -427.84 269.646 C -427.887 268.071 -427.96 266.411 -428.06 264.667 C -428.167 262.922 -428.343 261.348 -428.59 259.943 C -428.837 258.538 -428.967 257.222 -428.98 255.993 C -429 254.771 -429.063 253.442 -429.17 252.004 C -429.277 250.573 -429.463 249.064 -429.73 247.476 C -430.003 245.895 -430.193 244.275 -430.3 242.615 C -430.407 240.955 -430.593 239.306 -430.86 237.666 C -431.127 236.032 -431.313 234.317 -431.42 232.52 C -431.52 230.723 -431.693 228.858 -431.94 226.924 C -432.193 224.997 -432.35 222.775 -432.41 220.259 C -432.477 217.75 -432.587 214.716 -432.74 211.155 C -432.893 207.594 -432.893 204.062 -432.74 200.56 C -432.587 197.051 -432.33 193.866 -431.97 191.004 C -431.617 188.149 -431.277 184.526 -430.95 180.135 C -430.617 175.744 -430.323 172.517 -430.07 170.452 C -429.817 168.387 -429.64 166.316 -429.54 164.238 C -429.44 162.16 -429.28 160.177 -429.06 158.289 C -428.84 156.401 -428.72 154.382 -428.7 152.232 C -428.68 150.083 -428.65 147.923 -428.61 145.754 C -428.57 143.585 -428.5 141.396 -428.4 139.187 C -428.307 136.986 -428.143 134.526 -427.91 131.807 C -427.683 129.096 -427.553 125.947 -427.52 122.359 C -427.487 118.779 -427.43 115.904 -427.35 113.735 C -427.277 111.572 -427.147 109.184 -426.96 106.57 C -426.773 103.957 -426.713 100.984 -426.78 97.652 C -426.847 94.319 -426.953 91.366 -427.1 88.792 C -427.247 86.217 -427.49 83.094 -427.83 79.422 C -428.17 75.757 -428.483 72.931 -428.77 70.945 C -429.05 68.958 -429.247 66.671 -429.36 64.084 C -429.473 61.497 -429.663 59.455 -429.93 57.959 C -430.19 56.462 -430.347 55.009 -430.4 53.597 C -430.447 52.186 -430.503 50.784 -430.57 49.393 C -430.643 48.001 -430.713 46.626 -430.78 45.267 C -430.853 43.914 -430.913 42.604 -430.96 41.336 C -431.007 40.062 -431.013 38.893 -430.98 37.828 C -430.953 36.769 -430.77 35.423 -430.43 33.79 C -430.083 32.163 -429.873 30.938 -429.8 30.115 C -429.727 29.298 -429.617 28.419 -429.47 27.478 C -429.323 26.537 -429.133 25.6 -428.9 24.665 C -428.667 23.731 -428.457 22.689 -428.27 21.539 C -428.083 20.382 -427.833 19.441 -427.52 18.716 C -427.213 17.984 -426.933 17.187 -426.68 16.325 C -426.427 15.462 -426.18 14.57 -425.94 13.649 C -425.7 12.728 -425.397 11.895 -425.03 11.15 C -424.657 10.405 -424.297 9.637 -423.95 8.847 C -423.597 8.056 -423 6.828 -422.16 5.162 C -421.327 3.496 -420.447 2.104 -419.52 0.987 C -418.6 -0.124 -417.5 -1.202 -416.22 -2.248 C -414.94 -3.3 -414.017 -4.048 -413.45 -4.492 C -412.883 -4.936 -412.17 -5.475 -411.31 -6.109 C -410.457 -6.749 -409.703 -7.226 -409.05 -7.54 C -408.397 -7.847 -407.71 -8.19 -406.99 -8.569 C -406.27 -8.948 -405.447 -9.317 -404.52 -9.677 C -403.587 -10.029 -402.567 -10.389 -401.46 -10.755 C -400.353 -11.127 -399.153 -11.513 -397.86 -11.911 C -396.56 -12.31 -395.143 -12.676 -393.61 -13.009 C -392.083 -13.342 -390.543 -13.669 -388.99 -13.989 C -387.443 -14.309 -386.197 -14.59 -385.25 -14.832 C -384.297 -15.067 -383.137 -15.221 -381.77 -15.292 C -380.403 -15.358 -379.247 -15.518 -378.3 -15.773 C -377.353 -16.028 -376.48 -16.188 -375.68 -16.253 C -374.88 -16.318 -373.917 -16.482 -372.79 -16.743 C -371.67 -17.011 -370.693 -17.178 -369.86 -17.243 C -369.027 -17.308 -368.02 -17.475 -366.84 -17.743 C -365.66 -18.011 -364.603 -18.18 -363.67 -18.252 C -362.743 -18.331 -361.763 -18.494 -360.73 -18.742 C -359.703 -18.997 -358.667 -19.177 -357.62 -19.281 C -356.58 -19.392 -355.473 -19.608 -354.3 -19.928 C -353.133 -20.248 -351.94 -20.539 -350.72 -20.801 C -349.5 -21.062 -348.36 -21.238 -347.3 -21.33 C -346.233 -21.415 -345.087 -21.588 -343.86 -21.849 C -342.633 -22.111 -341.477 -22.287 -340.39 -22.378 C -339.303 -22.47 -338.127 -22.65 -336.86 -22.918 C -335.587 -23.192 -334.38 -23.381 -333.24 -23.486 C -332.093 -23.597 -331.003 -23.767 -329.97 -23.996 C -328.93 -24.224 -327.873 -24.378 -326.8 -24.456 C -325.727 -24.528 -324.573 -24.678 -323.34 -24.907 C -322.1 -25.129 -320.923 -25.253 -319.81 -25.279 C -318.697 -25.306 -317.6 -25.351 -316.52 -25.417 C -315.44 -25.489 -314.277 -25.632 -313.03 -25.848 C -311.783 -26.064 -310.583 -26.184 -309.43 -26.211 C -308.277 -26.23 -307.11 -26.282 -305.93 -26.367 C -304.743 -26.452 -303.447 -26.635 -302.04 -26.916 C -300.633 -27.197 -299.387 -27.37 -298.3 -27.436 C -297.207 -27.501 -296.043 -27.648 -294.81 -27.877 C -293.57 -28.099 -292.367 -28.236 -291.2 -28.288 C -290.033 -28.341 -288.767 -28.471 -287.4 -28.68 C -286.033 -28.889 -284.6 -29.014 -283.1 -29.053 C -281.607 -29.092 -280.12 -29.157 -278.64 -29.249 C -277.167 -29.34 -275.647 -29.497 -274.08 -29.719 C -272.513 -29.935 -270.983 -30.052 -269.49 -30.072 C -268.003 -30.085 -266.533 -30.108 -265.08 -30.141 C -263.627 -30.173 -262.22 -30.213 -260.86 -30.258 C -259.5 -30.304 -258.237 -30.353 -257.07 -30.405 C -255.903 -30.451 -254.637 -30.572 -253.27 -30.768 C -251.897 -30.964 -250.457 -31.072 -248.95 -31.091 C -247.443 -31.104 -245.943 -31.131 -244.45 -31.17 C -242.957 -31.209 -241.477 -31.274 -240.01 -31.366 C -238.55 -31.451 -237.05 -31.601 -235.51 -31.817 C -233.97 -32.026 -232.487 -32.134 -231.06 -32.14 C -229.633 -32.147 -228.267 -32.137 -226.96 -32.111 C -225.66 -32.084 -224.243 -32.068 -222.71 -32.062 C -221.183 -32.062 -219.65 -32.055 -218.11 -32.042 C -216.57 -32.035 -215.01 -32.022 -213.43 -32.003 C -211.857 -31.983 -210.243 -31.947 -208.59 -31.895 C -206.937 -31.849 -205.187 -31.768 -203.34 -31.65 C -201.493 -31.532 -199.747 -31.34 -198.1 -31.072 C -196.453 -30.81 -194.657 -30.605 -192.71 -30.454 C -190.757 -30.297 -188.827 -30.046 -186.92 -29.7 C -185.007 -29.353 -183.083 -29.014 -181.15 -28.68 C -179.217 -28.347 -177.257 -28.03 -175.27 -27.73 C -173.283 -27.429 -171.177 -27.151 -168.95 -26.897 C -166.723 -26.642 -164.64 -26.24 -162.7 -25.691 C -160.753 -25.142 -158.717 -24.688 -156.59 -24.329 C -154.47 -23.976 -152.457 -23.62 -150.55 -23.261 C -148.65 -22.908 -146.743 -22.555 -144.83 -22.202 C -142.917 -21.843 -140.993 -21.487 -139.06 -21.134 C -137.133 -20.774 -135.177 -20.418 -133.19 -20.065 C -131.203 -19.713 -129.15 -19.357 -127.03 -18.997 C -124.91 -18.644 -122.903 -18.288 -121.01 -17.929 C -119.11 -17.576 -117.213 -17.223 -115.32 -16.87 C -113.427 -16.518 -111.533 -16.161 -109.64 -15.802 C -107.747 -15.449 -105.853 -15.1 -103.96 -14.753 C -102.073 -14.401 -100.19 -14.051 -98.31 -13.705 C -96.423 -13.358 -94.55 -13.019 -92.69 -12.685 C -90.83 -12.352 -88.993 -12.032 -87.18 -11.725 C -85.36 -11.418 -83.603 -11.143 -81.91 -10.902 C -80.21 -10.667 -78.583 -10.497 -77.03 -10.392 C -75.477 -10.288 -73.973 -10.121 -72.52 -9.892 C -71.067 -9.664 -69.58 -9.507 -68.06 -9.422 C -66.547 -9.337 -65.11 -9.2 -63.75 -9.01 C -62.397 -8.821 -61.07 -8.713 -59.77 -8.687 C -58.477 -8.654 -57.07 -8.634 -55.55 -8.628 C -54.037 -8.615 -52.52 -8.592 -51 -8.559 C -49.487 -8.52 -47.967 -8.448 -46.44 -8.344 C -44.92 -8.239 -43.477 -8.063 -42.11 -7.814 C -40.75 -7.573 -39.427 -7.344 -38.14 -7.128 C -36.847 -6.919 -35.543 -6.619 -34.23 -6.227 C -32.917 -5.835 -32.2 -5.609 -32.08 -5.551 C -31.96 -5.498 -31.85 -5.433 -31.75 -5.355 C -31.643 -5.276 -31.55 -5.185 -31.47 -5.08 C -31.39 -4.982 -31.323 -4.874 -31.27 -4.757 C -31.217 -4.639 -31.18 -4.515 -31.16 -4.384 C -31.14 -4.26 -31.133 -4.133 -31.14 -4.002 C -31.147 -3.878 -31.17 -3.754 -31.21 -3.63 C -31.25 -3.505 -31.307 -3.391 -31.38 -3.287 C -31.447 -3.175 -31.527 -3.074 -31.62 -2.983 C -31.713 -2.891 -31.817 -2.813 -31.93 -2.747 C -32.037 -2.682 -32.153 -2.633 -32.28 -2.6 C -32.407 -2.561 -32.537 -2.538 -32.67 -2.532 C -32.797 -2.525 -32.927 -2.532 -33.06 -2.551 C -33.187 -2.578 -33.25 -2.591 -33.25 -2.591 L -33.25 -2.591 Z" style=""/>
  </g>
</svg>