<?xml version="1.0" encoding="utf-8"?>
<svg version="1.1" viewBox="0 0 567 377" width="567px" height="377px" xmlns="http://www.w3.org/2000/svg">
  <g stroke-linecap="round" transform="matrix(1, 0, 0, 1, 78.764778, 154.905441)">
    <path d="M10 0 M10 0 C112.23 0.28, 217.03 2.06, 384.4 0 M10 0 C120.16 -1.28, 232.25 -0.54, 384.4 0 M384.4 0 C391.19 -0.65, 390.59 -0.36, 394.4 10 M384.4 0 C392.14 -1.33, 391.85 0.79, 394.4 10 M394.4 10 C395.35 17.03, 394.33 22.41, 394.4 30 M394.4 10 C395.83 15.32, 393.35 19.37, 394.4 30 M394.4 30 C392.76 38.12, 388.3 40.72, 384.4 40 M394.4 30 C395.75 36.66, 394.07 38.06, 384.4 40 M384.4 40 C293 42.21, 195.14 40.37, 10 40 M384.4 40 C292.45 37.12, 198.97 37.79, 10 40 M10 40 C0.74 42.91, -3.49 34.23, 0 30 M10 40 C1.33 36.05, -1.25 39.31, 0 30 M0 30 C1.89 20.89, -0.64 14.08, 0 10 M0 30 C-0.95 24.59, -1.54 19.15, 0 10 M0 10 C3.27 7.29, 2.28 -0.12, 10 0 M0 10 C-0.45 -0.36, -0.98 -0.59, 10 0" stroke="#000000" stroke-width="1" fill="none"/>
  </g>
  <g transform="matrix(1, 0, 0, 1, 88.975487, 84.769699)">
    <text style="font-family: Virgil, &quot;Segoe UI Emoji&quot;; font-size: 28px; font-weight: 700; white-space: pre;" x="0" y="25">Page</text>
  </g>
  <g transform="matrix(1, 0, 0, 1, 91.16935, 133.141693)">
    <text x="0" y="18" font-family="Virgil, Segoe UI Emoji" font-size="20px" fill="#000000" text-anchor="start" style="white-space: pre;" direction="ltr">Label</text>
  </g>
  <g transform="matrix(1, 0, 0, 1, 90.169716, 162.150681)">
    <text x="0" y="18" font-family="Virgil, Segoe UI Emoji" font-size="20px" fill="#aaa" text-anchor="start" style="white-space: pre;" direction="ltr">My first Rabbet Page</text>
  </g>
  <g transform="matrix(1, 0, 0, 1, 74.632484, 437.135254)">
    <text style="font-family: Virgil, &quot;Segoe UI Emoji&quot;; font-size: 28px; font-weight: 700; white-space: pre;" x="0" y="25">Links</text>
  </g>
  <g transform="matrix(1, 0, 0, 1, 79.635429, 489.784027)">
    <text x="0" y="18" font-family="Virgil, Segoe UI Emoji" font-size="20px" fill="#000000" text-anchor="start" style="white-space: pre;" direction="ltr">1.</text>
  </g>
  <g stroke-linecap="round" transform="matrix(1, 0, 0, 1, 108.435364, 479.084106)">
    <path d="M8.8 0 M8.8 0 C136 2.03, 262.86 1.81, 342.4 0 M8.8 0 C135.83 3.85, 264.14 3.85, 342.4 0 M342.4 0 C347.86 3.05, 348.21 -0.94, 351.2 8.8 M342.4 0 C347.82 -0.65, 347.2 5.31, 351.2 8.8 M351.2 8.8 C350.37 17.38, 350.09 20.49, 351.2 26.4 M351.2 8.8 C351.59 14.5, 352.53 17.74, 351.2 26.4 M351.2 26.4 C347.2 32.63, 352.23 34.17, 342.4 35.2 M351.2 26.4 C353.1 28.36, 347.56 38.58, 342.4 35.2 M342.4 35.2 C243.34 31.34, 141.78 31.95, 8.8 35.2 M342.4 35.2 C245.82 34.06, 148.43 33.44, 8.8 35.2 M8.8 35.2 C5.57 35.1, -3.73 33.38, 0 26.4 M8.8 35.2 C-0.44 38.83, -0.39 35.97, 0 26.4 M0 26.4 C1.41 24.07, -0.16 19.99, 0 8.8 M0 26.4 C-1.07 20.28, 1.77 11.3, 0 8.8 M0 8.8 C-0.92 -0.33, 6.24 3.13, 8.8 0 M0 8.8 C-0.7 3.9, 0.01 1.61, 8.8 0" stroke="#000000" stroke-width="1" fill="none"/>
  </g>
  <g transform="matrix(1, 0, 0, 1, 119.635376, 486.884064)">
    <text x="0" y="15" font-family="Virgil, Segoe UI Emoji" font-size="16px" fill="#aaa" text-anchor="start" style="white-space: pre;" direction="ltr">Visit Rabbet</text>
  </g>
  <g stroke-linecap="round" transform="matrix(1, 0, 0, 1, 109.03537, 525.884033)">
    <path d="M8.8 0 M8.8 0 C114.25 -1.39, 217.25 0.41, 342.4 0 M8.8 0 C103.24 1.56, 198.92 1.4, 342.4 0 M342.4 0 C350.52 1.03, 354.64 5.78, 351.2 8.8 M342.4 0 C346.36 -3.19, 351.84 7.44, 351.2 8.8 M351.2 8.8 C348.81 14.01, 348.01 16.47, 351.2 26.4 M351.2 8.8 C351.42 12.72, 351.75 15.54, 351.2 26.4 M351.2 26.4 C350.12 29.68, 351.73 38.93, 342.4 35.2 M351.2 26.4 C346.62 35.55, 351.44 31.87, 342.4 35.2 M342.4 35.2 C271.02 29.25, 197.52 32.27, 8.8 35.2 M342.4 35.2 C275.04 39.68, 208.93 38.63, 8.8 35.2 M8.8 35.2 C-0.65 31.48, -2.11 34.89, 0 26.4 M8.8 35.2 C6.03 32.95, 0.56 30.61, 0 26.4 M0 26.4 C1.12 18.6, 1.59 14.87, 0 8.8 M0 26.4 C1.87 21.44, -0.07 14.28, 0 8.8 M0 8.8 C-0.69 4.45, -0.27 3.58, 8.8 0 M0 8.8 C1.83 -0.06, 4.91 -0.23, 8.8 0" stroke="#000000" stroke-width="1" fill="none"/>
  </g>
  <g transform="matrix(1, 0, 0, 1, 120.235382, 533.684021)">
    <text x="0" y="15" font-family="Virgil, Segoe UI Emoji" font-size="16px" fill="#aaa" text-anchor="start" style="white-space: pre;" direction="ltr">https://rabbet.vercel.app</text>
  </g>
  <g stroke-linecap="round" transform="matrix(1, 0, 0, 1, 78.723228, 574.50824)">
    <path d="M9.84 0 M9.84 0 C34.74 -4.45, 63.66 -0.86, 87.58 0 M9.84 0 C35.76 0.39, 59.01 1.13, 87.58 0 M87.58 0 C98.01 0.58, 99.7 3.99, 97.42 9.84 M87.58 0 C91.06 1.3, 97.23 3.01, 97.42 9.84 M97.42 9.84 C94.54 17.75, 95.19 26.91, 97.42 29.53 M97.42 9.84 C99.11 15.62, 98.93 18.97, 97.42 29.53 M97.42 29.53 C94.92 35.46, 90.71 38.2, 87.58 39.38 M97.42 29.53 C96.43 38.45, 96.48 37.25, 87.58 39.38 M87.58 39.38 C60.23 36.41, 37.86 38.23, 9.84 39.38 M87.58 39.38 C63.26 41.57, 40.58 39.31, 9.84 39.38 M9.84 39.38 C0.45 39.93, -3.5 32.87, 0 29.53 M9.84 39.38 C6 38.37, 0.49 35.04, 0 29.53 M0 29.53 C-2.84 28.74, 1.95 22.38, 0 9.84 M0 29.53 C-1.83 23.43, -1.48 20.87, 0 9.84 M0 9.84 C-2.36 2.44, -0.01 1.37, 9.84 0 M0 9.84 C-3.31 4.86, -0.99 0.09, 9.84 0" stroke="#000000" stroke-width="1" fill="none"/>
  </g>
  <g transform="matrix(1, 0, 0, 1, 93.731163, 581.92865)">
    <text x="0" y="18" font-family="Virgil, Segoe UI Emoji" font-size="20px" fill="#000000" text-anchor="start" style="white-space: pre;" direction="ltr">Save</text>
  </g>
  <g stroke-linecap="round" transform="matrix(1, 0, 0, 1, 79.362633, 230.268311)">
    <path d="M10 0 M10 0 C84.47 -1.55, 160.31 -2.52, 384.4 0 M10 0 C124.45 -2.72, 237.55 -3.18, 384.4 0 M384.4 0 C388.11 3.31, 395.89 6.03, 394.4 10 M384.4 0 C386.63 -3.21, 390.07 4.4, 394.4 10 M394.4 10 C397.66 15.42, 396.53 29, 394.4 30 M394.4 10 C394.03 15.77, 395.05 24.29, 394.4 30 M394.4 30 C398.22 33.92, 389.06 43.79, 384.4 40 M394.4 30 C390.5 40, 388.05 40.03, 384.4 40 M384.4 40 C253.5 42.97, 118.45 43.69, 10 40 M384.4 40 C266.78 44.12, 151.21 44.07, 10 40 M10 40 C3.49 37.5, 2.75 35.49, 0 30 M10 40 C1.82 41.66, 3.73 37.86, 0 30 M0 30 C-0.91 25.92, 3.17 17.46, 0 10 M0 30 C-0.44 25.11, -2.01 18.34, 0 10 M0 10 C1.16 2.33, 3.25 0.97, 10 0 M0 10 C2.22 3.22, 2.42 0.64, 10 0" stroke="#000000" stroke-width="1" fill="none"/>
  </g>
  <g transform="matrix(1, 0, 0, 1, 91.767204, 208.504562)">
    <text x="0" y="18" font-family="Virgil, Segoe UI Emoji" font-size="20px" fill="#000000" text-anchor="start" style="white-space: pre;" direction="ltr">Slug</text>
  </g>
  <g transform="matrix(1, 0, 0, 1, 90.76757, 237.51355)">
    <text x="0" y="18" font-family="Virgil, Segoe UI Emoji" font-size="20px" fill="#aaa" text-anchor="start" style="white-space: pre;" direction="ltr">first-page</text>
  </g>
  <g stroke-linecap="round" transform="matrix(1, 0, 0, 1, 78.275681, 303.094421)">
    <path d="M28.8 0 M28.8 0 C133.14 1.1, 236.33 0.23, 369.07 0 M28.8 0 C104 -0.43, 178.16 1.67, 369.07 0 M369.07 0 C391.86 2.41, 394.9 10.82, 397.88 28.8 M369.07 0 C388.8 3.47, 397.15 6.79, 397.88 28.8 M397.88 28.8 C400.8 38.19, 398.05 55.48, 397.88 86.41 M397.88 28.8 C397.79 46.71, 397.03 60.91, 397.88 86.41 M397.88 86.41 C395.24 104.62, 387.74 118.39, 369.07 115.22 M397.88 86.41 C398.61 104.55, 385.24 113.7, 369.07 115.22 M369.07 115.22 C301.19 121.82, 227.75 117.25, 28.8 115.22 M369.07 115.22 C243.68 119.3, 117.37 118.75, 28.8 115.22 M28.8 115.22 C9.75 116.94, -2.1 105.39, 0 86.41 M28.8 115.22 C8.43 113.15, -2.63 108.3, 0 86.41 M0 86.41 C0.71 63.39, -0.89 40.22, 0 28.8 M0 86.41 C-1.56 71.21, -2.62 56.04, 0 28.8 M0 28.8 C1.14 8.21, 8.05 -2.14, 28.8 0 M0 28.8 C-2.18 10.1, 8.66 -4.5, 28.8 0" stroke="#000000" stroke-width="1" fill="none"/>
  </g>
  <g transform="matrix(1, 0, 0, 1, 94.158508, 281.330658)">
    <text x="0" y="18" font-family="Virgil, Segoe UI Emoji" font-size="20px" fill="#000000" text-anchor="start" style="white-space: pre;" direction="ltr">About</text>
  </g>
  <g transform="matrix(1, 0, 0, 1, 93.158813, 309.224152)">
    <text x="0" y="18" font-family="Virgil, Segoe UI Emoji" font-size="20px" fill="#aaa" text-anchor="start" style="white-space: pre;" direction="ltr">My very first Rabbet Page.</text>
    <text x="0" y="43" font-family="Virgil, Segoe UI Emoji" font-size="20px" fill="#aaa" text-anchor="start" style="white-space: pre;" direction="ltr">Rabbet Rocks!!</text>
  </g>
  <g transform="matrix(1, 0, 0, 1, 471.319519, 68.915863)" stroke="none" fill="#000000">
    <path d="M -33.25,-1.99 Q -33.25,-1.99 -35.20,-2.64 -37.15,-3.29 -38.85,-3.50 -40.54,-3.71 -42.66,-4.19 -44.78,-4.66 -46.87,-4.86 -48.97,-5.06 -51.18,-5.16 -53.38,-5.26 -55.62,-5.31 -57.87,-5.36 -59.81,-5.34 -61.74,-5.33 -63.98,-5.67 -66.21,-6.02 -68.36,-6.16 -70.51,-6.31 -72.83,-6.70 -75.15,-7.09 -77.35,-7.25 -79.55,-7.40 -82.20,-7.79 -84.84,-8.19 -87.60,-8.67 -90.35,-9.15 -93.16,-9.67 -95.96,-10.19 -98.79,-10.72 -101.62,-11.25 -104.46,-11.80 -107.29,-12.34 -110.13,-12.88 -112.97,-13.42 -115.81,-13.97 -118.66,-14.51 -121.50,-15.06 -124.34,-15.60 -127.50,-16.14 -130.66,-16.69 -133.65,-17.23 -136.64,-17.78 -139.54,-18.32 -142.45,-18.87 -145.32,-19.41 -148.19,-19.96 -151.04,-20.50 -153.90,-21.05 -157.06,-21.59 -160.23,-22.13 -163.28,-23.00 -166.33,-23.88 -169.46,-24.22 -172.58,-24.56 -175.62,-25.04 -178.65,-25.51 -181.58,-26.02 -184.50,-26.54 -187.38,-27.07 -190.26,-27.60 -193.05,-27.82 -195.84,-28.03 -198.41,-28.45 -200.99,-28.86 -203.63,-29.03 -206.28,-29.20 -208.71,-29.27 -211.15,-29.34 -213.49,-29.37 -215.83,-29.40 -218.14,-29.42 -220.44,-29.43 -222.73,-29.44 -225.01,-29.44 -226.97,-29.41 -228.92,-29.37 -231.06,-29.38 -233.19,-29.39 -235.32,-29.10 -237.44,-28.80 -239.74,-28.66 -242.05,-28.53 -244.34,-28.48 -246.62,-28.42 -248.90,-28.40 -251.18,-28.38 -253.02,-28.04 -254.86,-27.69 -256.73,-27.49 -258.59,-27.29 -260.70,-27.24 -262.82,-27.20 -265.02,-27.19 -267.22,-27.19 -269.47,-27.20 -271.71,-27.20 -273.88,-26.90 -276.05,-26.60 -278.37,-26.47 -280.69,-26.34 -282.99,-26.29 -285.28,-26.24 -287.13,-25.88 -288.97,-25.52 -290.84,-25.32 -292.71,-25.11 -294.35,-24.71 -295.99,-24.30 -297.81,-24.09 -299.62,-23.87 -301.59,-23.54 -303.56,-23.21 -305.49,-23.01 -307.41,-22.82 -309.22,-22.72 -311.02,-22.61 -312.62,-22.26 -314.21,-21.91 -316.02,-21.72 -317.83,-21.54 -319.59,-21.45 -321.34,-21.37 -322.90,-21.03 -324.46,-20.70 -326.26,-20.52 -328.07,-20.35 -329.27,-19.95 -330.47,-19.56 -332.55,-19.41 -334.62,-19.25 -336.29,-18.91 -337.96,-18.56 -339.81,-18.37 -341.66,-18.19 -343.26,-17.82 -344.86,-17.46 -346.69,-17.27 -348.52,-17.08 -350.11,-16.72 -351.70,-16.35 -353.36,-15.89 -355.02,-15.43 -356.87,-15.20 -358.72,-14.96 -359.93,-14.54 -361.14,-14.13 -362.88,-13.91 -364.62,-13.68 -366.14,-13.32 -367.66,-12.96 -369.12,-12.74 -370.58,-12.51 -372.01,-12.15 -373.44,-11.79 -374.87,-11.56 -376.31,-11.34 -377.31,-10.96 -378.32,-10.58 -379.67,-10.34 -381.02,-10.09 -382.26,-9.98 -383.49,-9.87 -385.69,-9.34 -387.89,-8.80 -390.14,-8.23 -392.40,-7.67 -395.59,-6.99 -398.78,-6.31 -400.22,-5.85 -401.67,-5.38 -402.91,-4.86 -404.15,-4.34 -405.92,-3.23 -407.69,-2.13 -408.59,-1.39 -409.49,-0.65 -411.35,0.74 -413.21,2.14 -414.30,3.53 -415.39,4.92 -416.48,6.48 -417.56,8.05 -417.98,9.19 -418.40,10.33 -419.01,11.69 -419.63,13.04 -420.21,14.25 -420.80,15.46 -421.41,17.81 -422.01,20.16 -422.57,21.50 -423.12,22.84 -423.27,24.00 -423.43,25.16 -423.91,26.85 -424.40,28.54 -424.54,29.68 -424.67,30.82 -424.71,31.91 -424.76,33.01 -425.15,34.43 -425.55,35.86 -425.66,37.02 -425.77,38.18 -425.86,39.64 -425.95,41.10 -426.07,42.97 -426.20,44.84 -426.33,46.89 -426.46,48.94 -426.57,51.07 -426.68,53.19 -426.76,55.34 -426.84,57.50 -426.58,59.55 -426.32,61.60 -426.22,65.74 -426.11,69.89 -425.76,72.79 -425.41,75.70 -424.94,81.38 -424.47,87.06 -424.27,91.05 -424.08,95.04 -424.00,100.19 -423.93,105.35 -424.22,109.47 -424.52,113.58 -424.65,116.85 -424.78,120.12 -424.84,125.57 -424.89,131.02 -425.25,135.27 -425.60,139.52 -425.75,142.84 -425.90,146.17 -425.97,149.45 -426.03,152.74 -426.06,156.01 -426.09,159.29 -426.43,162.32 -426.77,165.35 -426.91,168.44 -427.05,171.53 -427.45,174.79 -427.84,178.05 -428.33,184.70 -428.82,191.36 -429.36,195.80 -429.90,200.24 -430.12,205.50 -430.35,210.77 -430.12,216.10 -429.89,221.43 -429.79,225.30 -429.69,229.17 -429.33,231.99 -428.96,234.82 -428.80,237.66 -428.64,240.50 -428.25,242.87 -427.87,245.24 -427.69,247.91 -427.52,250.57 -427.13,252.86 -426.74,255.15 -426.56,257.47 -426.39,259.78 -426.26,261.70 -426.14,263.62 -425.80,265.59 -425.45,267.55 -425.30,270.39 -425.16,273.22 -425.10,275.66 -425.04,278.11 -425.02,280.40 -425.00,282.69 -424.99,284.91 -424.99,287.14 -424.62,288.90 -424.26,290.67 -424.04,292.47 -423.83,294.27 -423.71,295.98 -423.59,297.69 -423.48,299.04 -423.37,300.39 -423.00,301.71 -422.64,303.03 -422.56,306.98 -422.48,310.92 -422.48,313.79 -422.48,316.67 -422.50,318.83 -422.52,320.99 -422.54,323.16 -422.56,325.33 -422.21,327.06 -421.86,328.79 -421.66,330.59 -421.46,332.39 -421.44,335.99 -421.43,339.60 -421.11,343.56 -420.79,347.52 -420.67,351.46 -420.54,355.39 -420.82,359.62 -421.10,363.86 -421.23,366.86 -421.35,369.86 -421.41,372.38 -421.46,374.91 -421.46,376.92 -421.47,378.93 -421.42,380.72 -421.37,382.51 -421.31,384.21 -421.26,385.92 -421.30,388.83 -421.35,391.74 -421.38,394.23 -421.41,396.72 -421.40,398.72 -421.40,400.72 -421.42,402.82 -421.44,404.92 -421.39,406.75 -421.35,408.59 -421.29,410.30 -421.24,412.02 -420.89,413.52 -420.53,415.03 -420.34,416.76 -420.14,418.50 -419.83,421.03 -419.52,423.57 -419.40,426.94 -419.28,430.31 -419.25,432.66 -419.21,435.01 -418.86,436.83 -418.50,438.65 -418.29,440.48 -418.09,442.31 -417.97,444.03 -417.86,445.75 -417.48,447.25 -417.11,448.76 -416.87,450.17 -416.63,451.57 -416.52,453.14 -416.41,454.72 -416.36,456.32 -416.31,457.92 -416.08,460.04 -415.86,462.15 -415.72,464.11 -415.59,466.07 -415.51,467.85 -415.43,469.63 -415.34,471.01 -415.25,472.39 -415.20,473.92 -415.16,475.45 -415.10,476.73 -415.04,478.00 -414.98,479.17 -414.92,480.34 -414.91,481.78 -414.89,483.21 -414.85,484.45 -414.81,485.69 -414.95,488.09 -415.09,490.49 -415.20,492.77 -415.31,495.04 -415.33,496.95 -415.36,498.85 -415.27,499.97 -415.19,501.10 -415.12,502.20 -415.04,503.30 -414.94,505.36 -414.84,507.41 -414.83,508.89 -414.83,510.37 -414.74,512.34 -414.65,514.31 -414.61,515.37 -414.58,516.43 -414.59,518.77 -414.59,521.11 -414.58,522.41 -414.58,523.70 -414.43,525.98 -414.28,528.26 -414.16,529.96 -414.04,531.67 -413.39,533.66 -412.75,535.66 -412.42,537.28 -412.10,538.91 -411.93,540.72 -411.76,542.53 -411.70,544.24 -411.64,545.96 -411.23,547.70 -410.82,549.44 -410.47,551.44 -410.11,553.44 -409.91,555.28 -409.71,557.12 -408.97,559.36 -408.23,561.60 -407.60,562.87 -406.97,564.14 -406.21,564.91 -405.45,565.67 -404.54,566.32 -403.64,566.98 -402.77,567.66 -401.90,568.34 -400.18,569.42 -398.46,570.51 -397.42,571.44 -396.38,572.37 -394.71,573.33 -393.04,574.28 -390.55,575.79 -388.06,577.30 -386.14,578.24 -384.22,579.19 -382.43,579.90 -380.64,580.61 -378.78,581.61 -376.93,582.60 -375.51,583.25 -374.10,583.90 -372.59,584.46 -371.08,585.01 -369.71,585.55 -368.33,586.08 -365.96,586.61 -363.60,587.14 -361.01,587.70 -358.42,588.26 -356.22,588.89 -354.01,589.51 -352.35,590.04 -350.69,590.56 -349.21,590.72 -347.73,590.89 -346.12,590.96 -344.50,591.03 -342.94,591.37 -341.37,591.70 -339.96,591.80 -338.55,591.91 -337.04,592.28 -335.52,592.65 -331.80,593.53 -328.07,594.41 -325.54,594.81 -323.02,595.22 -320.87,595.75 -318.71,596.28 -316.93,596.45 -315.15,596.62 -313.28,597.01 -311.40,597.40 -309.77,597.52 -308.13,597.65 -306.46,597.69 -304.79,597.73 -303.10,597.74 -301.41,597.74 -298.95,598.15 -296.48,598.56 -293.60,598.75 -290.71,598.94 -288.49,599.04 -286.26,599.13 -284.34,599.14 -282.42,599.16 -281.13,598.79 -279.83,598.42 -278.47,598.19 -277.11,597.97 -275.53,597.87 -273.94,597.76 -272.62,597.68 -271.30,597.59 -270.09,597.53 -268.87,597.46 -265.41,597.57 -261.94,597.69 -259.49,597.78 -257.04,597.86 -255.01,597.90 -252.99,597.94 -251.29,598.21 -249.60,598.49 -248.08,598.57 -246.56,598.65 -244.94,598.69 -243.31,598.72 -241.96,598.69 -240.60,598.65 -238.85,598.98 -237.10,599.31 -235.58,599.42 -234.06,599.54 -232.75,599.55 -231.44,599.56 -229.91,599.58 -228.38,599.59 -225.12,599.72 -221.86,599.85 -219.48,599.94 -217.11,600.04 -215.45,600.01 -213.79,599.97 -212.10,599.95 -210.41,599.93 -208.72,599.91 -207.02,599.90 -205.64,599.84 -204.27,599.79 -202.70,599.76 -201.13,599.74 -199.49,599.74 -197.84,599.73 -196.16,599.74 -194.48,599.74 -193.11,599.70 -191.74,599.65 -190.18,599.65 -188.62,599.64 -186.97,599.64 -185.33,599.65 -182.99,599.77 -180.66,599.88 -177.70,599.97 -174.75,600.06 -172.52,600.12 -170.28,600.18 -168.48,599.89 -166.68,599.59 -164.47,599.49 -162.25,599.40 -160.34,599.32 -158.43,599.24 -155.65,599.25 -152.87,599.27 -150.48,598.98 -148.08,598.69 -144.67,598.57 -141.26,598.44 -137.21,598.40 -133.15,598.36 -130.45,598.34 -127.75,598.33 -124.64,598.33 -121.52,598.32 -118.89,598.33 -116.26,598.33 -112.20,598.33 -108.14,598.33 -105.43,598.33 -102.73,598.34 -100.60,598.34 -98.46,598.34 -96.58,598.29 -94.69,598.24 -93.23,598.14 -91.78,598.04 -90.18,597.97 -88.58,597.91 -86.92,597.87 -85.26,597.83 -83.57,597.81 -81.89,597.78 -80.36,597.47 -78.83,597.16 -76.69,597.07 -74.55,596.98 -71.17,596.37 -67.79,595.77 -65.26,595.52 -62.74,595.27 -61.15,594.81 -59.56,594.35 -58.10,594.06 -56.64,593.77 -55.35,593.61 -54.05,593.44 -51.97,593.20 -49.88,592.95 -47.91,592.81 -45.94,592.66 -44.64,592.26 -43.34,591.85 -41.61,591.63 -39.87,591.42 -38.49,591.29 -37.11,591.15 -34.65,590.92 -32.19,590.69 -30.42,590.53 -28.64,590.36 -27.22,590.24 -25.80,590.11 -24.14,589.93 -22.47,589.75 -21.18,589.71 -19.88,589.67 -17.65,589.61 -15.42,589.54 -13.86,589.56 -12.30,589.58 -10.57,589.49 -8.83,589.40 -7.14,589.34 -5.45,589.27 -3.98,588.79 -2.50,588.32 -1.37,588.22 -0.23,588.13 1.93,587.60 4.10,587.07 5.72,586.82 7.34,586.58 8.57,586.18 9.80,585.79 11.07,584.88 12.34,583.98 13.76,583.52 15.18,583.06 16.00,582.37 16.82,581.69 17.91,581.05 19.01,580.42 20.11,579.86 21.22,579.31 22.34,578.77 23.46,578.24 25.31,576.81 27.16,575.39 28.03,574.59 28.89,573.79 29.95,571.72 31.00,569.64 31.65,568.04 32.30,566.43 32.53,565.02 32.76,563.61 33.25,561.87 33.75,560.12 33.92,558.65 34.09,557.18 34.62,554.28 35.16,551.38 35.75,547.67 36.34,543.96 36.95,539.88 37.56,535.80 37.83,532.86 38.11,529.92 38.24,527.74 38.38,525.56 38.39,523.69 38.40,521.83 38.43,519.79 38.47,517.75 38.51,515.32 38.55,512.89 38.57,510.60 38.60,508.31 38.61,504.84 38.63,501.36 38.64,498.95 38.66,496.53 38.34,493.38 38.03,490.23 37.25,485.78 36.47,481.33 36.13,477.80 35.79,474.27 35.00,469.39 34.21,464.51 33.54,458.95 32.88,453.39 32.27,447.90 31.66,442.41 30.75,436.99 29.84,431.56 29.13,427.69 28.42,423.81 27.78,417.09 27.14,410.38 26.55,406.01 25.96,401.64 25.70,398.16 25.45,394.69 25.34,391.33 25.23,387.96 25.18,383.40 25.14,378.83 25.12,375.02 25.10,371.20 25.09,368.02 25.08,364.83 25.08,361.91 25.08,358.99 25.40,354.26 25.73,349.53 25.87,344.44 26.00,339.34 26.06,334.05 26.12,328.75 26.15,325.25 26.17,321.74 26.18,318.69 26.19,315.63 26.20,312.77 26.20,309.91 26.20,307.13 26.20,304.35 26.21,301.60 26.21,298.85 26.21,294.87 26.21,290.88 25.88,287.69 25.56,284.49 25.42,281.83 25.28,279.16 24.89,272.40 24.51,265.65 24.34,261.20 24.18,256.75 24.11,253.29 24.04,249.83 24.34,246.72 24.64,243.61 24.76,240.48 24.88,237.35 25.60,232.49 26.31,227.64 26.94,223.71 27.57,219.79 28.17,216.25 28.76,212.70 29.34,209.62 29.92,206.53 30.82,201.78 31.72,197.03 32.44,193.45 33.15,189.86 34.09,182.74 35.04,175.62 35.78,171.31 36.52,166.99 36.82,163.65 37.13,160.31 37.59,156.35 38.05,152.39 38.24,149.49 38.43,146.59 38.52,143.18 38.60,139.78 38.97,136.99 39.33,134.21 39.48,131.54 39.63,128.87 40.36,124.21 41.08,119.55 41.39,116.69 41.69,113.83 41.81,110.76 41.94,107.69 42.33,105.35 42.72,103.01 42.88,99.93 43.03,96.86 43.44,94.50 43.84,92.14 43.96,90.28 44.07,88.43 44.04,87.01 44.00,85.60 44.36,83.62 44.72,81.65 44.57,77.92 44.43,74.18 44.39,69.67 44.34,65.16 44.67,61.93 44.99,58.69 45.04,57.04 45.09,55.39 45.05,54.09 45.00,52.78 44.88,50.62 44.75,48.46 44.63,46.60 44.50,44.74 44.46,42.44 44.43,40.14 44.57,37.90 44.72,35.67 45.11,33.61 45.51,31.56 45.65,29.91 45.78,28.26 45.72,26.49 45.66,24.72 45.59,23.61 45.51,22.51 44.96,21.22 44.41,19.94 43.69,18.76 42.97,17.57 42.20,15.91 41.44,14.24 40.14,12.92 38.83,11.60 37.72,10.08 36.62,8.57 35.86,7.80 35.10,7.03 34.29,6.20 33.48,5.36 32.07,4.00 30.65,2.65 29.59,1.75 28.52,0.86 27.13,0.13 25.74,-0.58 23.70,-1.56 21.66,-2.55 20.17,-3.05 18.69,-3.55 16.93,-4.15 15.16,-4.74 14.04,-4.90 12.92,-5.07 11.56,-5.51 10.20,-5.94 9.00,-6.07 7.80,-6.20 6.59,-6.25 5.38,-6.30 4.20,-6.32 3.01,-6.34 1.76,-6.71 0.51,-7.08 -1.63,-7.19 -3.78,-7.30 -5.24,-7.35 -6.69,-7.41 -7.97,-7.41 -9.25,-7.42 -11.15,-7.36 -13.04,-7.31 -14.46,-7.34 -15.87,-7.36 -17.46,-7.41 -19.04,-7.45 -20.38,-7.46 -21.71,-7.46 -23.25,-7.80 -24.78,-8.14 -26.70,-8.26 -28.61,-8.39 -30.50,-8.37 -32.39,-8.35 -33.48,-8.34 -34.58,-8.33 -34.91,-8.38 -35.25,-8.42 -35.57,-8.55 -35.89,-8.67 -36.16,-8.87 -36.44,-9.06 -36.67,-9.32 -36.89,-9.58 -37.04,-9.88 -37.20,-10.18 -37.28,-10.51 -37.36,-10.85 -37.35,-11.19 -37.35,-11.53 -37.26,-11.86 -37.18,-12.19 -37.02,-12.49 -36.86,-12.79 -36.63,-13.04 -36.40,-13.29 -36.12,-13.48 -35.84,-13.67 -35.52,-13.79 -35.20,-13.91 -34.86,-13.95 -34.52,-13.98 -32.45,-9.04 -30.39,-4.10 -30.36,-3.71 -30.34,-3.32 -30.43,-2.94 -30.53,-2.56 -30.75,-2.23 -30.97,-1.90 -31.27,-1.66 -31.58,-1.41 -31.95,-1.28 -32.32,-1.15 -32.72,-1.15 -33.11,-1.14 -33.48,-1.26 -33.86,-1.38 -34.18,-1.61 -34.49,-1.85 -34.72,-2.17 -34.94,-2.49 -35.05,-2.87 -35.16,-3.25 -35.15,-3.64 -35.13,-4.03 -34.99,-4.40 -34.85,-4.76 -34.60,-5.07 -34.35,-5.37 -34.02,-5.58 -33.69,-5.79 -33.30,-5.88 -32.92,-5.97 -32.53,-5.93 -32.14,-5.89 -31.78,-5.73 -31.42,-5.57 -31.13,-5.31 -30.84,-5.04 -30.65,-4.70 -30.46,-4.35 -30.39,-3.97 -30.32,-3.58 -30.38,-3.19 -30.44,-2.80 -30.62,-2.45 -30.80,-2.10 -31.08,-1.83 -31.36,-1.55 -31.72,-1.38 -32.07,-1.21 -32.46,-1.16 -32.85,-1.12 -33.23,-1.20 -33.62,-1.27 -33.96,-1.47 -34.30,-1.67 -34.56,-1.97 -34.82,-2.26 -34.97,-2.62 -35.12,-2.99 -35.12,-2.99 -35.12,-2.99 -34.85,-5.66 -34.58,-8.33 -34.91,-8.38 -35.25,-8.42 -35.57,-8.55 -35.89,-8.67 -36.16,-8.87 -36.44,-9.06 -36.67,-9.32 -36.89,-9.58 -37.04,-9.88 -37.20,-10.18 -37.28,-10.51 -37.36,-10.85 -37.35,-11.19 -37.35,-11.53 -37.26,-11.86 -37.18,-12.19 -37.02,-12.49 -36.86,-12.79 -36.63,-13.04 -36.40,-13.29 -36.12,-13.48 -35.84,-13.67 -35.52,-13.79 -35.20,-13.91 -34.86,-13.95 -34.52,-13.98 -33.43,-13.97 -32.33,-13.95 -30.36,-13.86 -28.38,-13.78 -26.89,-13.72 -25.40,-13.65 -23.53,-13.17 -21.67,-12.70 -20.35,-12.70 -19.04,-12.70 -17.45,-12.74 -15.87,-12.79 -14.45,-12.81 -13.03,-12.84 -11.12,-12.77 -9.21,-12.70 -7.91,-12.69 -6.61,-12.67 -5.06,-12.68 -3.52,-12.68 -2.22,-12.61 -0.93,-12.54 1.16,-12.04 3.25,-11.55 4.46,-11.50 5.67,-11.46 7.03,-11.37 8.38,-11.27 11.09,-10.69 13.80,-10.11 15.07,-9.87 16.33,-9.62 19.47,-8.86 22.61,-8.10 24.24,-7.26 25.88,-6.42 27.86,-5.38 29.84,-4.35 30.85,-3.78 31.87,-3.21 32.89,-2.37 33.91,-1.52 35.85,-0.27 37.80,0.98 39.34,2.55 40.89,4.12 41.57,5.32 42.25,6.51 43.79,8.16 45.34,9.81 46.01,10.79 46.68,11.78 47.16,13.15 47.65,14.51 48.24,15.51 48.84,16.51 49.23,18.24 49.62,19.98 50.01,21.77 50.40,23.56 50.23,25.00 50.07,26.43 49.93,27.51 49.80,28.58 49.66,30.41 49.51,32.25 49.25,33.96 49.00,35.68 49.14,37.91 49.29,40.14 49.25,42.44 49.21,44.74 49.07,46.62 48.93,48.49 48.74,50.71 48.56,52.93 48.41,54.28 48.26,55.63 48.05,57.30 47.85,58.96 47.58,62.04 47.32,65.12 47.42,69.58 47.53,74.04 47.73,78.14 47.94,82.25 47.58,84.01 47.23,85.76 47.05,87.22 46.87,88.67 46.65,90.63 46.43,92.59 46.04,94.79 45.65,96.99 45.48,100.22 45.31,103.45 44.94,105.62 44.57,107.80 44.43,110.95 44.30,114.10 43.99,117.03 43.68,119.95 42.97,124.49 42.25,129.02 42.10,131.79 41.94,134.56 41.58,137.20 41.22,139.84 41.14,143.30 41.05,146.77 40.86,149.73 40.66,152.69 40.20,156.62 39.74,160.55 39.42,163.99 39.11,167.43 38.38,171.70 37.65,175.97 36.68,183.17 35.72,190.37 35.01,193.95 34.31,197.52 33.41,202.27 32.50,207.02 31.93,210.08 31.35,213.13 30.76,216.67 30.16,220.21 29.54,224.11 28.91,228.02 28.21,232.74 27.51,237.46 27.38,240.66 27.25,243.87 26.96,246.82 26.66,249.78 26.73,253.22 26.80,256.66 26.96,261.08 27.13,265.50 27.51,272.26 27.90,279.02 28.04,281.63 28.17,284.23 28.50,287.56 28.83,290.88 28.83,294.87 28.83,298.85 28.83,301.60 28.83,304.35 28.83,307.13 28.83,309.91 28.82,312.78 28.82,315.64 28.81,318.70 28.80,321.76 28.77,325.27 28.75,328.78 28.69,334.10 28.63,339.42 28.49,344.56 28.35,349.71 28.03,354.35 27.70,358.99 27.71,361.91 27.71,364.82 27.72,368.01 27.73,371.19 27.75,375.00 27.77,378.81 27.81,383.34 27.86,387.88 27.96,391.19 28.07,394.50 28.32,397.89 28.57,401.28 29.17,405.71 29.76,410.13 30.39,416.73 31.01,423.33 31.73,427.23 32.45,431.13 33.37,436.62 34.29,442.12 34.90,447.60 35.51,453.07 36.17,458.58 36.84,464.09 37.64,469.05 38.45,474.01 38.78,477.44 39.12,480.86 39.92,485.41 40.73,489.96 41.07,493.24 41.41,496.53 41.42,498.95 41.43,501.36 41.45,504.84 41.46,508.32 41.48,510.61 41.50,512.90 41.52,515.34 41.54,517.78 41.54,519.84 41.54,521.90 41.47,523.80 41.40,525.69 41.34,527.93 41.28,530.16 41.10,533.20 40.91,536.24 40.44,540.35 39.97,544.45 39.57,548.20 39.16,551.95 38.88,554.82 38.61,557.69 38.41,559.49 38.21,561.29 37.84,562.82 37.46,564.34 37.19,566.21 36.91,568.08 36.37,569.77 35.84,571.46 35.13,573.47 34.42,575.48 33.52,576.66 32.62,577.84 31.71,578.67 30.80,579.49 29.41,580.85 28.02,582.22 27.03,582.85 26.05,583.49 24.98,584.03 23.90,584.57 22.91,585.09 21.92,585.60 20.34,586.59 18.76,587.57 17.66,588.10 16.56,588.63 15.22,589.21 13.89,589.78 12.74,590.38 11.59,590.98 10.07,591.53 8.55,592.07 6.27,592.56 4.00,593.04 2.05,593.49 0.10,593.94 -1.25,594.02 -2.61,594.10 -3.99,594.46 -5.37,594.81 -7.10,594.75 -8.83,594.68 -10.57,594.59 -12.30,594.50 -13.86,594.52 -15.41,594.55 -17.64,594.49 -19.86,594.42 -21.13,594.40 -22.40,594.37 -24.01,594.26 -25.62,594.15 -26.97,594.15 -28.33,594.15 -30.01,594.28 -31.69,594.41 -34.29,594.86 -36.90,595.31 -38.19,595.31 -39.48,595.32 -40.94,595.42 -42.41,595.52 -44.03,595.87 -45.66,596.21 -47.48,596.36 -49.31,596.52 -51.55,596.96 -53.79,597.41 -54.97,597.40 -56.16,597.39 -57.45,597.48 -58.74,597.56 -60.55,597.97 -62.36,598.39 -64.76,598.71 -67.15,599.04 -70.73,599.80 -74.31,600.56 -76.22,600.74 -78.14,600.92 -80.01,601.23 -81.88,601.55 -83.57,601.52 -85.26,601.49 -86.92,601.45 -88.58,601.41 -90.18,601.35 -91.78,601.29 -93.23,601.19 -94.69,601.09 -96.58,601.04 -98.46,600.99 -100.59,600.99 -102.73,600.99 -105.43,601.00 -108.14,601.00 -112.20,601.01 -116.26,601.01 -118.89,601.02 -121.51,601.03 -124.62,601.05 -127.72,601.07 -130.42,601.11 -133.11,601.14 -137.13,601.22 -141.15,601.29 -144.42,601.44 -147.70,601.59 -150.27,601.95 -152.84,602.31 -155.59,602.37 -158.34,602.43 -160.20,602.47 -162.06,602.50 -164.11,602.67 -166.15,602.84 -168.21,603.17 -170.27,603.50 -172.51,603.56 -174.75,603.63 -177.70,603.71 -180.66,603.80 -182.99,603.92 -185.33,604.03 -186.97,604.04 -188.62,604.05 -190.18,604.04 -191.74,604.03 -193.11,603.99 -194.48,603.94 -196.16,603.94 -197.84,603.95 -199.49,603.94 -201.13,603.94 -202.70,603.92 -204.27,603.90 -205.64,603.84 -207.02,603.78 -208.72,603.77 -210.42,603.75 -212.10,603.73 -213.79,603.70 -215.46,603.67 -217.12,603.63 -219.49,603.72 -221.87,603.80 -225.16,603.91 -228.45,604.02 -230.04,603.98 -231.63,603.95 -233.02,603.84 -234.41,603.74 -236.18,603.58 -237.95,603.42 -239.32,603.10 -240.69,602.78 -242.07,602.70 -243.44,602.62 -245.16,602.54 -246.87,602.46 -248.61,602.28 -250.34,602.09 -251.67,601.74 -253.00,601.39 -255.02,601.43 -257.04,601.47 -259.49,601.56 -261.94,601.65 -265.38,601.77 -268.83,601.90 -270.03,601.85 -271.23,601.80 -272.51,601.76 -273.80,601.73 -275.27,601.73 -276.73,601.74 -277.94,601.77 -279.14,601.80 -280.79,602.04 -282.45,602.28 -284.40,602.24 -286.34,602.20 -288.60,602.18 -290.86,602.16 -293.91,602.07 -296.95,601.98 -299.22,601.74 -301.48,601.49 -303.21,601.44 -304.94,601.39 -306.71,601.29 -308.48,601.18 -310.31,600.97 -312.15,600.76 -313.82,600.36 -315.50,599.96 -317.46,599.74 -319.42,599.52 -321.44,599.14 -323.47,598.76 -326.16,598.50 -328.86,598.24 -332.79,597.55 -336.72,596.85 -337.85,596.47 -338.97,596.09 -340.68,595.89 -342.40,595.69 -343.57,595.32 -344.74,594.94 -346.50,594.82 -348.25,594.70 -350.07,594.41 -351.89,594.12 -353.37,593.58 -354.86,593.03 -356.99,592.61 -359.11,592.19 -362.10,591.78 -365.09,591.36 -366.10,590.93 -367.11,590.51 -368.51,590.14 -369.91,589.77 -371.18,589.16 -372.45,588.55 -374.10,587.88 -375.75,587.21 -377.15,586.45 -378.54,585.69 -380.22,584.85 -381.91,584.00 -383.82,583.33 -385.73,582.66 -387.90,581.82 -390.06,580.98 -392.59,579.77 -395.11,578.55 -397.54,577.52 -399.97,576.48 -401.48,575.17 -403.00,573.86 -404.87,572.48 -406.74,571.10 -408.04,570.10 -409.34,569.09 -410.75,566.97 -412.16,564.85 -412.75,562.82 -413.34,560.78 -413.86,559.38 -414.38,557.99 -414.88,555.89 -415.38,553.79 -415.44,552.37 -415.50,550.94 -415.83,548.55 -416.16,546.15 -416.24,544.57 -416.33,543.00 -416.50,541.48 -416.67,539.97 -417.19,537.36 -417.71,534.74 -418.12,533.42 -418.52,532.09 -418.67,530.48 -418.83,528.87 -419.33,526.29 -419.84,523.71 -419.83,522.41 -419.83,521.11 -419.83,518.77 -419.84,516.43 -419.80,515.37 -419.77,514.31 -419.68,512.34 -419.59,510.37 -419.58,508.89 -419.58,507.41 -419.48,505.36 -419.37,503.30 -419.30,502.20 -419.23,501.10 -419.15,499.97 -419.06,498.85 -419.09,496.95 -419.11,495.04 -419.22,492.77 -419.32,490.49 -419.46,488.09 -419.60,485.69 -419.57,484.45 -419.53,483.22 -419.52,481.78 -419.50,480.35 -419.45,479.18 -419.39,478.02 -419.34,476.75 -419.29,475.48 -419.27,473.97 -419.24,472.47 -419.20,471.11 -419.16,469.76 -419.21,468.05 -419.25,466.35 -419.41,464.53 -419.56,462.71 -420.01,460.35 -420.46,458.00 -420.46,456.44 -420.47,454.89 -420.49,453.45 -420.50,452.01 -420.57,450.76 -420.63,449.51 -420.97,447.70 -421.30,445.89 -421.32,444.24 -421.33,442.59 -421.42,440.89 -421.52,439.20 -421.88,437.16 -422.23,435.11 -422.34,432.79 -422.45,430.47 -422.65,427.27 -422.86,424.06 -423.32,421.44 -423.78,418.81 -423.87,417.25 -423.95,415.69 -424.25,413.86 -424.55,412.03 -424.50,410.31 -424.44,408.59 -424.40,406.75 -424.35,404.92 -424.37,402.82 -424.39,400.72 -424.39,398.72 -424.38,396.72 -424.41,394.23 -424.44,391.74 -424.48,388.82 -424.52,385.91 -424.46,384.20 -424.40,382.50 -424.33,380.70 -424.27,378.90 -424.23,376.88 -424.19,374.86 -424.15,372.31 -424.11,369.76 -424.01,366.72 -423.91,363.68 -423.67,359.59 -423.42,355.50 -423.59,351.64 -423.76,347.78 -424.15,343.72 -424.54,339.65 -424.64,336.15 -424.75,332.65 -424.83,330.99 -424.91,329.33 -425.22,327.34 -425.54,325.35 -425.58,323.19 -425.63,321.02 -425.70,318.88 -425.77,316.74 -425.89,313.90 -426.01,311.06 -426.22,307.46 -426.42,303.86 -426.74,302.17 -427.05,300.47 -426.99,299.14 -426.93,297.81 -426.93,296.17 -426.93,294.52 -427.00,292.84 -427.07,291.16 -427.36,289.16 -427.66,287.16 -427.68,284.94 -427.70,282.72 -427.73,280.45 -427.76,278.18 -427.84,275.78 -427.91,273.37 -428.06,270.70 -428.22,268.03 -428.59,265.88 -428.96,263.73 -428.98,261.85 -429.01,259.98 -429.17,257.78 -429.33,255.59 -429.73,253.16 -430.14,250.74 -430.30,248.20 -430.46,245.66 -430.86,243.15 -431.26,240.65 -431.42,237.90 -431.57,235.15 -431.94,232.19 -432.32,229.24 -432.41,225.39 -432.51,221.55 -432.74,216.10 -432.97,210.65 -432.74,205.29 -432.51,199.92 -431.97,195.54 -431.44,191.17 -430.95,184.45 -430.45,177.73 -430.07,174.57 -429.69,171.41 -429.54,168.23 -429.39,165.05 -429.06,162.16 -428.73,159.27 -428.70,155.98 -428.67,152.69 -428.61,149.37 -428.55,146.05 -428.40,142.67 -428.26,139.30 -427.91,135.14 -427.57,130.99 -427.52,125.50 -427.47,120.02 -427.35,116.70 -427.24,113.39 -426.96,109.39 -426.68,105.39 -426.78,100.29 -426.88,95.19 -427.10,91.25 -427.32,87.31 -427.83,81.69 -428.34,76.08 -428.77,73.04 -429.19,70.00 -429.36,66.04 -429.53,62.08 -429.93,59.79 -430.32,57.50 -430.40,55.34 -430.47,53.18 -430.57,51.05 -430.68,48.92 -430.78,46.84 -430.89,44.77 -430.96,42.83 -431.03,40.88 -430.98,39.25 -430.94,37.63 -430.43,35.13 -429.91,32.64 -429.80,31.38 -429.69,30.13 -429.47,28.69 -429.25,27.25 -428.90,25.82 -428.55,24.39 -428.27,22.63 -427.99,20.86 -427.52,19.75 -427.06,18.63 -426.68,17.31 -426.30,15.99 -425.94,14.58 -425.58,13.17 -425.03,12.03 -424.47,10.89 -423.95,9.68 -423.42,8.47 -422.16,5.92 -420.91,3.37 -419.52,1.66 -418.14,-0.04 -416.22,-1.64 -414.30,-3.25 -413.45,-3.93 -412.60,-4.61 -411.31,-5.58 -410.03,-6.56 -409.05,-7.04 -408.07,-7.51 -406.99,-8.09 -405.91,-8.67 -404.52,-9.22 -403.12,-9.76 -401.46,-10.32 -399.80,-10.89 -397.86,-11.50 -395.91,-12.11 -393.61,-12.62 -391.32,-13.13 -388.99,-13.62 -386.67,-14.11 -385.25,-14.48 -383.82,-14.84 -381.77,-14.95 -379.72,-15.05 -378.30,-15.44 -376.88,-15.83 -375.68,-15.93 -374.48,-16.03 -372.79,-16.43 -371.11,-16.84 -369.86,-16.94 -368.61,-17.04 -366.84,-17.45 -365.07,-17.86 -363.67,-17.97 -362.28,-18.09 -360.73,-18.47 -359.19,-18.86 -357.62,-19.02 -356.06,-19.19 -354.30,-19.68 -352.55,-20.17 -350.72,-20.57 -348.89,-20.97 -347.30,-21.11 -345.70,-21.24 -343.86,-21.64 -342.02,-22.04 -340.39,-22.18 -338.76,-22.32 -336.86,-22.73 -334.95,-23.15 -333.24,-23.31 -331.52,-23.48 -329.97,-23.83 -328.41,-24.18 -326.80,-24.30 -325.19,-24.41 -323.34,-24.76 -321.48,-25.10 -319.81,-25.14 -318.14,-25.18 -316.52,-25.28 -314.90,-25.39 -313.03,-25.72 -311.16,-26.05 -309.43,-26.09 -307.70,-26.12 -305.93,-26.25 -304.15,-26.38 -302.04,-26.81 -299.93,-27.24 -298.30,-27.34 -296.66,-27.44 -294.81,-27.79 -292.95,-28.13 -291.20,-28.21 -289.45,-28.29 -287.40,-28.61 -285.35,-28.93 -283.10,-28.99 -280.86,-29.05 -278.64,-29.19 -276.43,-29.33 -274.08,-29.67 -271.73,-30.00 -269.49,-30.03 -267.26,-30.05 -265.08,-30.10 -262.90,-30.15 -260.86,-30.22 -258.82,-30.29 -257.07,-30.37 -255.32,-30.44 -253.27,-30.74 -251.21,-31.04 -248.95,-31.07 -246.69,-31.09 -244.45,-31.15 -242.21,-31.21 -240.01,-31.35 -237.82,-31.48 -235.51,-31.81 -233.20,-32.13 -231.06,-32.14 -228.92,-32.15 -226.96,-32.11 -225.01,-32.07 -222.71,-32.06 -220.42,-32.06 -218.11,-32.04 -215.80,-32.03 -213.43,-32.00 -211.07,-31.97 -208.59,-31.89 -206.11,-31.82 -203.34,-31.64 -200.57,-31.46 -198.10,-31.05 -195.63,-30.65 -192.71,-30.42 -189.78,-30.18 -186.92,-29.65 -184.05,-29.12 -181.15,-28.61 -178.25,-28.10 -175.27,-27.64 -172.29,-27.18 -168.95,-26.79 -165.61,-26.40 -162.70,-25.56 -159.78,-24.72 -156.59,-24.17 -153.41,-23.63 -150.55,-23.08 -147.70,-22.54 -144.83,-22.00 -141.96,-21.45 -139.06,-20.91 -136.17,-20.36 -133.19,-19.82 -130.21,-19.28 -127.03,-18.73 -123.85,-18.19 -121.01,-17.64 -118.16,-17.10 -115.32,-16.56 -112.48,-16.02 -109.64,-15.47 -106.80,-14.93 -103.96,-14.40 -101.13,-13.86 -98.31,-13.33 -95.48,-12.80 -92.69,-12.29 -89.90,-11.78 -87.18,-11.31 -84.45,-10.84 -81.91,-10.47 -79.36,-10.11 -77.03,-9.95 -74.70,-9.79 -72.52,-9.44 -70.34,-9.09 -68.06,-8.96 -65.79,-8.83 -63.75,-8.54 -61.72,-8.25 -59.77,-8.21 -57.83,-8.16 -55.55,-8.15 -53.28,-8.13 -51.00,-8.08 -48.73,-8.02 -46.44,-7.86 -44.16,-7.70 -42.11,-7.32 -40.07,-6.95 -38.14,-6.62 -36.20,-6.30 -34.23,-5.70 -32.26,-5.10 -32.08,-5.01 -31.90,-4.93 -31.75,-4.81 -31.59,-4.69 -31.47,-4.53 -31.35,-4.38 -31.27,-4.20 -31.19,-4.02 -31.16,-3.82 -31.13,-3.63 -31.14,-3.43 -31.15,-3.24 -31.21,-3.05 -31.27,-2.86 -31.38,-2.70 -31.48,-2.53 -31.62,-2.39 -31.76,-2.25 -31.93,-2.15 -32.09,-2.05 -32.28,-2.00 -32.47,-1.94 -32.67,-1.93 -32.86,-1.92 -33.06,-1.95 -33.25,-1.99 -33.25,-1.99 L -33.25,-1.99 Z" style=""/>
  </g>
</svg>